<?xml version="1.0" encoding="UTF-8"?>
<!DOCTYPE svg PUBLIC "-//W3C//DTD SVG 1.1//EN" "http://www.w3.org/Graphics/SVG/1.1/DTD/svg11.dtd">
<!-- Creator: CorelDRAW -->
<svg xmlns="http://www.w3.org/2000/svg" xml:space="preserve" width="60.2mm" height="80.2mm" version="1.1" style="shape-rendering:geometricPrecision; text-rendering:geometricPrecision; image-rendering:optimizeQuality; fill-rule:evenodd; clip-rule:evenodd"
viewBox="0 0 1943.34 2588.97"
 xmlns:xlink="http://www.w3.org/1999/xlink"
 xmlns:xodm="http://www.corel.com/coreldraw/odm/2003">
 <defs>
  <style type="text/css">
   <![CDATA[
    .str0 {stroke:#2B2B2A;stroke-width:6.46;stroke-miterlimit:22.9256}
    .fil4 {fill:#727272}
    .fil0 {fill:#5C5C5B}
    .fil1 {fill:#434342}
    .fil3 {fill:#2B2B2A}
    .fil6 {fill:#4E897C}
    .fil5 {fill:#2B2B2A;fill-rule:nonzero}
    .fil2 {fill:#F07F1B;fill-rule:nonzero}
   ]]>
  </style>
 </defs>
 <g id="Слой_x0020_1">
  <metadata id="CorelCorpID_0Corel-Layer"/>
  <g id="_105553185473664">
   <g>
    <path class="fil0 str0" d="M170.25 771.77l322.74 0c8.47,0 15.4,6.93 15.4,15.4l0 302.5c0,8.47 -6.93,15.4 -15.4,15.4l-322.74 0c-8.46,0 -15.4,-6.93 -15.4,-15.4l0 -302.5c0,-8.47 6.93,-15.4 15.4,-15.4z"/>
    <path class="fil1 str0" d="M198.51 798.42l266.2 0c8.47,0 15.4,6.93 15.4,15.39l0 249.21c0,8.46 -6.93,15.4 -15.4,15.4l-266.2 0c-8.47,0 -15.4,-6.93 -15.4,-15.4l0 -249.21c0,-8.46 6.93,-15.39 15.4,-15.39z"/>
    <path class="fil1 str0" d="M198.51 798.42l266.2 0c8.47,0 15.4,6.93 15.4,15.39l0 249.21c0,8.46 -6.93,15.4 -15.4,15.4l-266.2 0c-8.47,0 -15.4,-6.93 -15.4,-15.4l0 -249.21c0,-8.46 6.93,-15.39 15.4,-15.39z"/>
    <path class="fil2" d="M200.4 950.91c0,7.35 1.55,13.49 4.68,18.46 3.11,4.94 8.11,7.41 14.98,7.41 5.33,0 9.73,-2.3 13.16,-6.89 3.43,-4.59 5.16,-11.18 5.16,-19.75 0,-8.68 -1.77,-15.09 -5.31,-19.26 -3.54,-4.15 -7.92,-6.23 -13.14,-6.23 -5.79,0 -10.52,2.21 -14.12,6.65 -3.61,4.44 -5.4,10.98 -5.4,19.61zm17.36 -36.32c5.25,0 9.64,1.09 13.18,3.32 2.06,1.29 4.37,3.52 7,6.73l0 -34.65 11.07 0 0 94.41 -10.37 0 0 -9.56c-2.69,4.24 -5.88,7.28 -9.56,9.16 -3.67,1.88 -7.87,2.82 -12.62,2.82 -7.65,0 -14.26,-3.22 -19.85,-9.64 -5.6,-6.43 -8.4,-14.98 -8.4,-25.65 0,-9.99 2.56,-18.65 7.65,-25.98 5.12,-7.32 12.4,-10.98 21.89,-10.98zm48.61 1.2l10.96 0 0 11.85c0.89,-2.3 3.1,-5.12 6.6,-8.42 3.5,-3.3 7.54,-4.96 12.12,-4.96 0.22,0 0.57,0.02 1.09,0.06 0.5,0.05 1.38,0.13 2.62,0.26l0 12.16c-0.7,-0.13 -1.31,-0.2 -1.9,-0.24 -0.57,-0.04 -1.2,-0.06 -1.88,-0.06 -5.82,0 -10.28,1.86 -13.38,5.6 -3.13,3.74 -4.68,8.04 -4.68,12.9l0 39.47 -11.54 0 0 -68.61zm54.9 0l0 45.55c0,3.5 0.55,6.36 1.66,8.59 2.05,4.09 5.88,6.14 11.48,6.14 8.02,0 13.49,-3.58 16.4,-10.76 1.57,-3.85 2.36,-9.12 2.36,-15.83l0 -33.7 11.52 0 0 68.61 -10.89 0 0.13 -10.12c-1.48,2.6 -3.34,4.81 -5.58,6.6 -4.39,3.59 -9.73,5.38 -16.01,5.38 -9.77,0 -16.44,-3.26 -19.99,-9.8 -1.92,-3.5 -2.89,-8.18 -2.89,-14.04l0 -46.64 11.79 0zm61.44 0l11.39 0 0 9.75c2.73,-3.39 5.2,-5.84 7.43,-7.37 3.81,-2.6 8.11,-3.92 12.94,-3.92 5.47,0 9.86,1.36 13.18,4.04 1.88,1.53 3.59,3.78 5.14,6.78 2.56,-3.67 5.58,-6.39 9.03,-8.16 3.46,-1.77 7.35,-2.67 11.66,-2.67 9.23,0 15.5,3.32 18.82,9.99 1.79,3.58 2.69,8.42 2.69,14.47l0 45.67 -11.96 0 0 -47.67c0,-4.57 -1.16,-7.7 -3.43,-9.4 -2.3,-1.71 -5.07,-2.58 -8.37,-2.58 -4.53,0 -8.42,1.53 -11.68,4.55 -3.28,3.04 -4.9,8.11 -4.9,15.2l0 39.9 -11.72 0 0 -44.78c0,-4.66 -0.57,-8.04 -1.68,-10.19 -1.75,-3.19 -5.01,-4.79 -9.8,-4.79 -4.35,0 -8.31,1.69 -11.87,5.05 -3.56,3.37 -5.36,9.49 -5.36,18.32l0 36.38 -11.52 0 0 -68.61z"/>
   </g>
   <g>
    <polygon class="fil3 str0" points="67.79,3.23 1875.55,3.23 1940.11,67.79 1940.11,2521.18 1875.55,2585.74 67.79,2585.74 3.23,2521.18 3.23,67.79 "/>
    <polygon class="fil4" points="3.23,64.17 1940.11,64.17 1940.11,173.45 3.23,173.45 "/>
    <path class="fil5" d="M204.9 346.79l5.2 0 0 15.87c1.18,-1.52 2.57,-2.69 4.2,-3.5 1.64,-0.8 3.4,-1.21 5.31,-1.21 3.98,0 7.19,1.37 9.67,4.1 2.47,2.74 3.7,6.76 3.7,12.08 0,5.04 -1.22,9.23 -3.66,12.57 -2.44,3.34 -5.82,5.01 -10.16,5.01 -2.42,0 -4.46,-0.59 -6.13,-1.76 -1,-0.7 -2.07,-1.81 -3.19,-3.33l0 4.08 -4.94 0 0 -43.9zm13.94 40.18c2.9,0 5.06,-1.15 6.51,-3.46 1.44,-2.31 2.15,-5.34 2.15,-9.12 0,-3.35 -0.71,-6.13 -2.15,-8.34 -1.44,-2.2 -3.56,-3.3 -6.37,-3.3 -2.44,0 -4.57,0.9 -6.41,2.71 -1.84,1.8 -2.76,4.78 -2.76,8.93 0,3 0.38,5.44 1.13,7.3 1.41,3.52 4.04,5.27 7.9,5.27zm20.41 -28.03l5.45 0 0 31.75 -5.45 0 0 -31.75zm0 -12.01l5.45 0 0 6.08 -5.45 0 0 -6.08zm13.55 11.85l5.3 0 0 4.54c1.27,-1.58 2.42,-2.71 3.46,-3.43 1.77,-1.21 3.77,-1.82 6.02,-1.82 2.54,0 4.59,0.63 6.13,1.88 0.87,0.71 1.67,1.76 2.39,3.15 1.19,-1.71 2.59,-2.97 4.2,-3.79 1.6,-0.82 3.42,-1.24 5.42,-1.24 4.29,0 7.21,1.55 8.75,4.65 0.84,1.67 1.25,3.92 1.25,6.73l0 21.24 -5.56 0 0 -22.16c0,-2.13 -0.54,-3.58 -1.6,-4.37 -1.07,-0.79 -2.36,-1.2 -3.89,-1.2 -2.1,0 -3.92,0.71 -5.43,2.11 -1.52,1.41 -2.28,3.77 -2.28,7.07l0 18.56 -5.45 0 0 -20.82c0,-2.16 -0.26,-3.74 -0.78,-4.74 -0.81,-1.48 -2.33,-2.23 -4.55,-2.23 -2.02,0 -3.86,0.78 -5.52,2.35 -1.66,1.57 -2.49,4.41 -2.49,8.52l0 16.92 -5.36 0 0 -31.91zm67.35 -12l5.2 0 0 15.87c1.18,-1.52 2.57,-2.69 4.2,-3.5 1.64,-0.8 3.4,-1.21 5.31,-1.21 3.98,0 7.19,1.37 9.67,4.1 2.47,2.74 3.7,6.76 3.7,12.08 0,5.04 -1.22,9.23 -3.66,12.57 -2.44,3.34 -5.82,5.01 -10.16,5.01 -2.42,0 -4.46,-0.59 -6.13,-1.76 -1,-0.7 -2.07,-1.81 -3.19,-3.33l0 4.08 -4.94 0 0 -43.9zm13.94 40.18c2.9,0 5.06,-1.15 6.51,-3.46 1.44,-2.31 2.15,-5.34 2.15,-9.12 0,-3.35 -0.71,-6.13 -2.15,-8.34 -1.44,-2.2 -3.56,-3.3 -6.37,-3.3 -2.44,0 -4.57,0.9 -6.41,2.71 -1.84,1.8 -2.76,4.78 -2.76,8.93 0,3 0.38,5.44 1.13,7.3 1.41,3.52 4.04,5.27 7.9,5.27zm20.41 -28.03l5.45 0 0 31.75 -5.45 0 0 -31.75zm0 -12.01l5.45 0 0 6.08 -5.45 0 0 -6.08zm13.55 11.85l5.3 0 0 4.54c1.27,-1.58 2.42,-2.71 3.46,-3.43 1.77,-1.21 3.77,-1.82 6.02,-1.82 2.54,0 4.59,0.63 6.13,1.88 0.87,0.71 1.67,1.76 2.39,3.15 1.19,-1.71 2.59,-2.97 4.2,-3.79 1.6,-0.82 3.42,-1.24 5.42,-1.24 4.29,0 7.21,1.55 8.75,4.65 0.84,1.67 1.25,3.92 1.25,6.73l0 21.24 -5.56 0 0 -22.16c0,-2.13 -0.54,-3.58 -1.6,-4.37 -1.07,-0.79 -2.36,-1.2 -3.89,-1.2 -2.1,0 -3.92,0.71 -5.43,2.11 -1.52,1.41 -2.28,3.77 -2.28,7.07l0 18.56 -5.45 0 0 -20.82c0,-2.16 -0.26,-3.74 -0.78,-4.74 -0.81,-1.48 -2.33,-2.23 -4.55,-2.23 -2.02,0 -3.86,0.78 -5.52,2.35 -1.66,1.57 -2.49,4.41 -2.49,8.52l0 16.92 -5.36 0 0 -31.91zm84.3 -12l5.2 0 0 15.87c1.18,-1.52 2.57,-2.69 4.2,-3.5 1.64,-0.8 3.4,-1.21 5.31,-1.21 3.98,0 7.19,1.37 9.67,4.1 2.47,2.74 3.7,6.76 3.7,12.08 0,5.04 -1.22,9.23 -3.66,12.57 -2.44,3.34 -5.82,5.01 -10.16,5.01 -2.42,0 -4.46,-0.59 -6.13,-1.76 -1,-0.7 -2.07,-1.81 -3.19,-3.33l0 4.08 -4.94 0 0 -43.9zm13.94 40.18c2.9,0 5.06,-1.15 6.51,-3.46 1.44,-2.31 2.15,-5.34 2.15,-9.12 0,-3.35 -0.71,-6.13 -2.15,-8.34 -1.44,-2.2 -3.56,-3.3 -6.37,-3.3 -2.44,0 -4.57,0.9 -6.41,2.71 -1.84,1.8 -2.76,4.78 -2.76,8.93 0,3 0.38,5.44 1.13,7.3 1.41,3.52 4.04,5.27 7.9,5.27zm24.51 -4.77c0,1.55 0.57,2.77 1.7,3.66 1.13,0.89 2.47,1.34 4.03,1.34 1.88,0 3.71,-0.44 5.48,-1.31 2.98,-1.44 4.46,-3.82 4.46,-7.11l0 -4.32c-0.65,0.42 -1.49,0.77 -2.53,1.05 -1.04,0.27 -2.04,0.48 -3.04,0.59l-3.24 0.42c-1.95,0.26 -3.41,0.67 -4.38,1.23 -1.65,0.93 -2.47,2.42 -2.47,4.46zm12.99 -10.84c1.23,-0.16 2.06,-0.68 2.48,-1.55 0.23,-0.48 0.36,-1.16 0.36,-2.06 0,-1.83 -0.65,-3.15 -1.95,-3.97 -1.3,-0.82 -3.16,-1.24 -5.59,-1.24 -2.8,0 -4.78,0.76 -5.95,2.27 -0.66,0.83 -1.09,2.07 -1.28,3.72l-5.01 0c0.1,-3.93 1.38,-6.66 3.83,-8.21 2.45,-1.54 5.3,-2.31 8.53,-2.31 3.75,0 6.8,0.71 9.15,2.15 2.32,1.43 3.48,3.65 3.48,6.67l0 18.38c0,0.56 0.12,1.01 0.35,1.34 0.23,0.34 0.71,0.51 1.44,0.51 0.25,0 0.51,-0.02 0.8,-0.05 0.31,-0.03 0.62,-0.07 0.96,-0.13l0 3.96c-0.83,0.24 -1.48,0.39 -1.9,0.45 -0.44,0.05 -1.04,0.08 -1.79,0.08 -1.85,0 -3.19,-0.65 -4.03,-1.96 -0.44,-0.69 -0.74,-1.68 -0.93,-2.95 -1.09,1.43 -2.65,2.67 -4.7,3.72 -2.05,1.06 -4.3,1.58 -6.77,1.58 -2.96,0 -5.37,-0.89 -7.25,-2.7 -1.87,-1.79 -2.81,-4.05 -2.81,-6.74 0,-2.96 0.93,-5.26 2.78,-6.88 1.84,-1.63 4.27,-2.63 7.27,-3.01l8.54 -1.07zm16.83 -12.58l5.3 0 0 4.54c1.27,-1.58 2.42,-2.71 3.46,-3.43 1.77,-1.21 3.77,-1.82 6.02,-1.82 2.54,0 4.59,0.63 6.13,1.88 0.87,0.71 1.67,1.76 2.39,3.15 1.19,-1.71 2.59,-2.97 4.2,-3.79 1.6,-0.82 3.42,-1.24 5.42,-1.24 4.29,0 7.21,1.55 8.75,4.65 0.84,1.67 1.25,3.92 1.25,6.73l0 21.24 -5.56 0 0 -22.16c0,-2.13 -0.54,-3.58 -1.6,-4.37 -1.07,-0.79 -2.36,-1.2 -3.89,-1.2 -2.1,0 -3.92,0.71 -5.43,2.11 -1.52,1.41 -2.28,3.77 -2.28,7.07l0 18.56 -5.45 0 0 -20.82c0,-2.16 -0.26,-3.74 -0.78,-4.74 -0.81,-1.48 -2.33,-2.23 -4.55,-2.23 -2.02,0 -3.86,0.78 -5.52,2.35 -1.66,1.57 -2.49,4.41 -2.49,8.52l0 16.92 -5.36 0 0 -31.91zm67.35 -12l5.2 0 0 15.87c1.18,-1.52 2.57,-2.69 4.2,-3.5 1.64,-0.8 3.4,-1.21 5.31,-1.21 3.98,0 7.19,1.37 9.67,4.1 2.47,2.74 3.7,6.76 3.7,12.08 0,5.04 -1.22,9.23 -3.66,12.57 -2.44,3.34 -5.82,5.01 -10.16,5.01 -2.42,0 -4.46,-0.59 -6.13,-1.76 -1,-0.7 -2.07,-1.81 -3.19,-3.33l0 4.08 -4.94 0 0 -43.9zm13.94 40.18c2.9,0 5.06,-1.15 6.51,-3.46 1.44,-2.31 2.15,-5.34 2.15,-9.12 0,-3.35 -0.71,-6.13 -2.15,-8.34 -1.44,-2.2 -3.56,-3.3 -6.37,-3.3 -2.44,0 -4.57,0.9 -6.41,2.71 -1.84,1.8 -2.76,4.78 -2.76,8.93 0,3 0.38,5.44 1.13,7.3 1.41,3.52 4.04,5.27 7.9,5.27zm24.51 -4.77c0,1.55 0.57,2.77 1.7,3.66 1.13,0.89 2.47,1.34 4.03,1.34 1.88,0 3.71,-0.44 5.48,-1.31 2.98,-1.44 4.46,-3.82 4.46,-7.11l0 -4.32c-0.65,0.42 -1.49,0.77 -2.53,1.05 -1.04,0.27 -2.04,0.48 -3.04,0.59l-3.24 0.42c-1.95,0.26 -3.41,0.67 -4.38,1.23 -1.65,0.93 -2.47,2.42 -2.47,4.46zm12.99 -10.84c1.23,-0.16 2.06,-0.68 2.48,-1.55 0.23,-0.48 0.36,-1.16 0.36,-2.06 0,-1.83 -0.65,-3.15 -1.95,-3.97 -1.3,-0.82 -3.16,-1.24 -5.59,-1.24 -2.8,0 -4.78,0.76 -5.95,2.27 -0.66,0.83 -1.09,2.07 -1.28,3.72l-5.01 0c0.1,-3.93 1.38,-6.66 3.83,-8.21 2.45,-1.54 5.3,-2.31 8.53,-2.31 3.75,0 6.8,0.71 9.15,2.15 2.32,1.43 3.48,3.65 3.48,6.67l0 18.38c0,0.56 0.12,1.01 0.35,1.34 0.23,0.34 0.71,0.51 1.44,0.51 0.25,0 0.51,-0.02 0.8,-0.05 0.31,-0.03 0.62,-0.07 0.96,-0.13l0 3.96c-0.83,0.24 -1.48,0.39 -1.9,0.45 -0.44,0.05 -1.04,0.08 -1.79,0.08 -1.85,0 -3.19,-0.65 -4.03,-1.96 -0.44,-0.69 -0.74,-1.68 -0.93,-2.95 -1.09,1.43 -2.65,2.67 -4.7,3.72 -2.05,1.06 -4.3,1.58 -6.77,1.58 -2.96,0 -5.37,-0.89 -7.25,-2.7 -1.87,-1.79 -2.81,-4.05 -2.81,-6.74 0,-2.96 0.93,-5.26 2.78,-6.88 1.84,-1.63 4.27,-2.63 7.27,-3.01l8.54 -1.07zm16.83 -12.58l5.3 0 0 4.54c1.27,-1.58 2.42,-2.71 3.46,-3.43 1.77,-1.21 3.77,-1.82 6.02,-1.82 2.54,0 4.59,0.63 6.13,1.88 0.87,0.71 1.67,1.76 2.39,3.15 1.19,-1.71 2.59,-2.97 4.2,-3.79 1.6,-0.82 3.42,-1.24 5.42,-1.24 4.29,0 7.21,1.55 8.75,4.65 0.84,1.67 1.25,3.92 1.25,6.73l0 21.24 -5.56 0 0 -22.16c0,-2.13 -0.54,-3.58 -1.6,-4.37 -1.07,-0.79 -2.36,-1.2 -3.89,-1.2 -2.1,0 -3.92,0.71 -5.43,2.11 -1.52,1.41 -2.28,3.77 -2.28,7.07l0 18.56 -5.45 0 0 -20.82c0,-2.16 -0.26,-3.74 -0.78,-4.74 -0.81,-1.48 -2.33,-2.23 -4.55,-2.23 -2.02,0 -3.86,0.78 -5.52,2.35 -1.66,1.57 -2.49,4.41 -2.49,8.52l0 16.92 -5.36 0 0 -31.91z"/>
    <path class="fil2" d="M55.3 124.65l21.02 0 5.45 -4.67 0.46 -2.33 -3.89 -4.67 -21.02 0 -5.45 4.67 -0.47 2.33 3.89 4.67zm7.71 -30.36l16.34 0 5.45 -4.67 -5.76 -7.01 -23.27 0 -0.39 2.33 7.63 9.34zm-2.1 11.68l1.25 -7.01 -7.71 -9.34 -2.34 0 -4.51 25.68 2.33 0 10.98 -9.34zm29.65 -9.34l-3.81 -4.67 -8.25 7.01 -1.25 7.01 7.71 9.34 2.34 0 3.27 -18.68zm-48.72 51.37l2.33 0 10.98 -9.34 1.25 -7.01 -7.71 -9.34 -2.34 0 -4.51 25.69zm88.19 -23.35l-21.02 0 -3.89 -4.67 0.47 -2.33 5.45 -4.67 21.02 0 3.89 4.67 -0.46 2.33 -5.45 4.67zm3.03 -30.36l-16.34 0 -3.89 -4.67 8.25 -7.01 23.27 0 -0.39 2.33 -10.9 9.34zm-28.49 2.34l5.53 -4.67 5.76 7.01 -1.25 7.01 -10.98 9.34 -2.33 0 3.27 -18.68zm3.43 46.7l16.34 0 3.89 4.67 -8.25 7.01 -11.68 0 -5.76 -7.01 5.45 -4.67zm2.1 -11.67l-1.25 7.01 -8.25 7.01 -3.81 -4.67 3.27 -18.68 2.34 0 7.71 9.34zm26.38 9.34l-5.53 4.67 -5.76 -7.01 1.25 -7.01 10.97 -9.34 2.34 0 -3.27 18.68zm91.61 -16.34l-21.02 0 -3.89 -4.67 0.47 -2.33 5.45 -4.67 21.02 0 3.89 4.67 -0.46 2.33 -5.45 4.67zm3.03 -30.36l-16.34 0 -3.89 -4.67 8.25 -7.01 23.27 0 -0.39 2.33 -10.9 9.34zm-28.49 2.34l5.53 -4.67 5.76 7.01 -1.25 7.01 -10.98 9.34 -2.33 0 3.27 -18.68zm19.77 46.7l-16.34 0 -10.98 9.34 -0.39 2.33 23.35 0 8.25 -7.01 -3.89 -4.67zm2.1 -11.67l-1.25 7.01 5.76 7.01 5.53 -4.67 3.27 -18.68 -2.34 0 -10.97 9.34zm36.27 -7.01l21.02 0 5.45 -4.67 0.46 -2.33 -3.89 -4.67 -21.02 0 -5.45 4.67 -0.47 2.33 3.89 4.67zm7.71 -30.36l16.34 0 5.45 -4.67 -5.76 -7.01 -11.68 0 -8.25 7.01 3.89 4.67zm-2.1 11.68l1.25 -7.01 -5.76 -7.01 -5.53 4.67 -3.27 18.68 2.33 0 10.98 -9.34zm29.65 -9.34l-3.81 -4.67 -8.25 7.01 -1.25 7.01 7.71 9.34 2.34 0 3.27 -18.68zm-17.82 35.03l-1.25 7.01 7.71 9.34 2.33 0 4.52 -25.69 -2.34 0 -10.97 9.34zm-30.9 16.34l2.33 0 10.98 -9.34 1.25 -7.01 -7.71 -9.34 -2.34 0 -4.51 25.69zm74.88 -53.71l16.34 0 5.45 -4.67 -5.76 -7.01 -23.27 0 -0.39 2.33 7.63 9.34zm-2.1 11.68l1.25 -7.01 -7.71 -9.34 -2.34 0 -4.51 25.68 2.33 0 10.98 -9.34zm29.65 -9.34l-3.81 -4.67 -8.25 7.01 -1.25 7.01 7.71 9.34 2.34 0 3.27 -18.68zm-48.72 51.37l2.33 0 10.98 -9.34 1.25 -7.01 -7.71 -9.34 -2.34 0 -4.51 25.69zm44.21 -25.69l-2.34 0 -10.97 9.34 -1.25 7.01 7.71 9.34 2.33 0 4.52 -25.69zm23.66 -28.02l-16.35 0 -3.89 -4.67 8.25 -7.01 23.27 0 -0.39 2.33 -10.89 9.34zm-2.1 11.68l1.24 -7.01 10.98 -9.34 2.33 0 -4.51 25.68 -2.33 0 -7.71 -9.34zm4.28 42.03l-2.34 0 -7.71 -9.34 1.25 -7.01 10.98 -9.34 2.33 0 -4.51 25.69zm27.47 -23.35l21.02 0 5.45 -4.67 0.46 -2.33 -3.89 -4.67 -21.02 0 -5.45 4.67 -0.47 2.33 3.89 4.67zm7.71 -30.36l16.34 0 5.45 -4.67 -5.76 -7.01 -23.27 0 -0.39 2.33 7.63 9.34zm-2.1 11.68l1.25 -7.01 -7.71 -9.34 -2.34 0 -4.51 25.68 2.33 0 10.98 -9.34zm29.65 -9.34l-3.81 -4.67 -8.25 7.01 -1.25 7.01 7.71 9.34 2.34 0 3.27 -18.68zm-48.72 51.37l2.33 0 10.98 -9.34 1.25 -7.01 -7.71 -9.34 -2.34 0 -4.51 25.69zm74.02 -49.04l-1.25 7.01 -10.98 9.34 -2.33 0 4.51 -25.68 2.34 0 7.71 9.34zm-7.86 44.36l16.34 0 7.71 9.34 -0.39 2.33 -23.35 0 -5.76 -7.01 5.45 -4.67zm2.1 -11.67l-1.25 7.01 -8.25 7.01 -3.81 -4.67 3.27 -18.68 2.34 0 7.71 9.34zm25.14 16.34l-2.33 0 -7.71 -9.34 1.25 -7.01 10.97 -9.34 2.34 0 -4.52 25.69zm27.48 -23.35l21.02 0 5.45 -4.67 0.46 -2.33 -3.89 -4.67 -21.02 0 -5.45 4.67 -0.47 2.33 3.89 4.67zm7.71 -30.36l16.34 0 10.98 -9.34 0.39 -2.33 -34.94 0 -0.39 2.33 7.63 9.34zm-2.1 11.68l1.25 -7.01 -7.71 -9.34 -2.34 0 -4.51 25.68 2.33 0 10.98 -9.34zm9.73 37.36l-16.34 0 -10.98 9.34 -0.39 2.33 34.95 0 0.39 -2.33 -7.63 -9.34zm-28.8 4.67l2.33 0 10.98 -9.34 1.25 -7.01 -7.71 -9.34 -2.34 0 -4.51 25.69z"/>
    <g>
     <path class="fil2" d="M1235.39 387.4l7.06 0 0 7.37 -7.06 0 0 -7.37zm21.64 -10.31c0,3.88 0.82,7.12 2.47,9.74 1.64,2.61 4.28,3.91 7.91,3.91 2.81,0 5.14,-1.21 6.95,-3.63 1.81,-2.42 2.72,-5.89 2.72,-10.42 0,-4.58 -0.94,-7.96 -2.81,-10.17 -1.87,-2.19 -4.18,-3.29 -6.93,-3.29 -3.06,0 -5.55,1.17 -7.46,3.51 -1.9,2.34 -2.85,5.79 -2.85,10.35zm9.16 -19.17c2.77,0 5.09,0.57 6.96,1.75 1.09,0.68 2.31,1.86 3.69,3.55l0 -18.29 5.84 0 0 49.83 -5.47 0 0 -5.04c-1.42,2.24 -3.11,3.84 -5.04,4.84 -1.94,0.99 -4.15,1.49 -6.66,1.49 -4.04,0 -7.52,-1.7 -10.48,-5.09 -2.95,-3.39 -4.43,-7.9 -4.43,-13.54 0,-5.27 1.35,-9.84 4.04,-13.71 2.7,-3.86 6.54,-5.79 11.55,-5.79zm25.65 0.63l5.78 0 0 6.26c0.47,-1.21 1.64,-2.7 3.49,-4.45 1.85,-1.74 3.98,-2.62 6.39,-2.62 0.11,0 0.3,0.01 0.57,0.04 0.27,0.02 0.73,0.07 1.38,0.14l0 6.41c-0.37,-0.07 -0.69,-0.1 -1,-0.13 -0.3,-0.02 -0.63,-0.04 -0.99,-0.04 -3.07,0 -5.42,0.98 -7.06,2.95 -1.65,1.98 -2.47,4.25 -2.47,6.81l0 20.83 -6.09 0 0 -36.21zm28.98 0l0 24.04c0,1.85 0.29,3.36 0.88,4.53 1.08,2.16 3.11,3.24 6.06,3.24 4.24,0 7.12,-1.89 8.65,-5.68 0.83,-2.03 1.25,-4.81 1.25,-8.35l0 -17.78 6.08 0 0 36.21 -5.75 0 0.07 -5.34c-0.78,1.37 -1.77,2.54 -2.94,3.48 -2.32,1.89 -5.14,2.84 -8.45,2.84 -5.16,0 -8.68,-1.72 -10.55,-5.17 -1.01,-1.85 -1.52,-4.32 -1.52,-7.41l0 -24.61 6.22 0zm32.43 0l6.01 0 0 5.15c1.44,-1.79 2.75,-3.08 3.92,-3.89 2.01,-1.38 4.28,-2.07 6.83,-2.07 2.88,0 5.2,0.72 6.96,2.13 0.99,0.81 1.89,2 2.71,3.58 1.35,-1.94 2.94,-3.37 4.77,-4.3 1.82,-0.93 3.88,-1.41 6.15,-1.41 4.87,0 8.18,1.75 9.94,5.27 0.95,1.89 1.42,4.44 1.42,7.64l0 24.11 -6.31 0 0 -25.16c0,-2.41 -0.61,-4.06 -1.81,-4.96 -1.21,-0.9 -2.68,-1.36 -4.42,-1.36 -2.39,0 -4.44,0.81 -6.16,2.4 -1.73,1.6 -2.59,4.28 -2.59,8.02l0 21.06 -6.19 0 0 -23.63c0,-2.46 -0.3,-4.25 -0.89,-5.38 -0.92,-1.69 -2.64,-2.53 -5.17,-2.53 -2.3,0 -4.38,0.89 -6.27,2.67 -1.88,1.78 -2.83,5.01 -2.83,9.67l0 19.2 -6.08 0 0 -36.21zm61.29 24.86c0.19,2.02 0.69,3.58 1.52,4.66 1.54,1.96 4.19,2.94 7.97,2.94 2.26,0 4.25,-0.5 5.96,-1.48 1.72,-0.98 2.57,-2.5 2.57,-4.55 0,-1.55 -0.69,-2.73 -2.07,-3.54 -0.87,-0.5 -2.62,-1.07 -5.2,-1.73l-4.84 -1.21c-3.09,-0.77 -5.37,-1.63 -6.83,-2.57 -2.61,-1.64 -3.92,-3.93 -3.92,-6.83 0,-3.43 1.23,-6.2 3.7,-8.31 2.47,-2.12 5.79,-3.19 9.96,-3.19 5.46,0 9.38,1.6 11.8,4.8 1.51,2.03 2.25,4.23 2.2,6.57l-5.75 0c-0.12,-1.37 -0.6,-2.63 -1.45,-3.76 -1.4,-1.59 -3.82,-2.4 -7.27,-2.4 -2.3,0 -4.04,0.45 -5.23,1.33 -1.18,0.88 -1.78,2.03 -1.78,3.47 0,1.58 0.78,2.85 2.34,3.8 0.9,0.55 2.23,1.05 3.98,1.48l4.03 0.98c4.37,1.06 7.31,2.09 8.79,3.08 2.37,1.56 3.54,4.01 3.54,7.34 0,3.22 -1.22,6 -3.67,8.34 -2.45,2.35 -6.16,3.52 -11.17,3.52 -5.39,0 -9.2,-1.22 -11.45,-3.67 -2.24,-2.45 -3.44,-5.47 -3.6,-9.07l5.85 0zm32.46 3.98l7.06 0 0 7.37 -7.06 0 0 -7.37zm38.47 0l7.06 0 0 7.37 -7.06 0 0 -7.37zm17.95 -42.3l6.09 0 0 49.67 -6.09 0 0 -49.67zm29.59 45.75c4.03,0 6.8,-1.52 8.3,-4.58 1.5,-3.04 2.25,-6.45 2.25,-10.19 0,-3.38 -0.54,-6.13 -1.63,-8.25 -1.71,-3.33 -4.66,-5.01 -8.85,-5.01 -3.73,0 -6.43,1.42 -8.12,4.27 -1.69,2.84 -2.54,6.27 -2.54,10.27 0,3.85 0.84,7.07 2.54,9.64 1.69,2.57 4.36,3.85 8.04,3.85zm0.23 -33.34c4.67,0 8.61,1.56 11.84,4.67 3.22,3.1 4.84,7.69 4.84,13.72 0,5.84 -1.42,10.66 -4.26,14.47 -2.85,3.81 -7.25,5.71 -13.23,5.71 -4.98,0 -8.93,-1.69 -11.86,-5.06 -2.93,-3.37 -4.4,-7.89 -4.4,-13.57 0,-6.08 1.55,-10.93 4.63,-14.54 3.09,-3.6 7.23,-5.41 12.44,-5.41zm38.28 33.34c4.03,0 6.8,-1.52 8.3,-4.58 1.5,-3.04 2.25,-6.45 2.25,-10.19 0,-3.38 -0.54,-6.13 -1.63,-8.25 -1.71,-3.33 -4.66,-5.01 -8.85,-5.01 -3.73,0 -6.43,1.42 -8.12,4.27 -1.69,2.84 -2.54,6.27 -2.54,10.27 0,3.85 0.84,7.07 2.54,9.64 1.69,2.57 4.36,3.85 8.04,3.85zm0.23 -33.34c4.67,0 8.61,1.56 11.84,4.67 3.22,3.1 4.84,7.69 4.84,13.72 0,5.84 -1.42,10.66 -4.26,14.47 -2.85,3.81 -7.25,5.71 -13.23,5.71 -4.98,0 -8.93,-1.69 -11.86,-5.06 -2.93,-3.37 -4.4,-7.89 -4.4,-13.57 0,-6.08 1.55,-10.93 4.63,-14.54 3.09,-3.6 7.23,-5.41 12.44,-5.41zm39.19 33.18c2.84,0 5.2,-1.2 7.08,-3.58 1.88,-2.38 2.82,-5.93 2.82,-10.66 0,-2.89 -0.42,-5.37 -1.25,-7.43 -1.58,-3.99 -4.47,-5.99 -8.65,-5.99 -4.21,0 -7.1,2.11 -8.66,6.32 -0.83,2.25 -1.25,5.11 -1.25,8.58 0,2.79 0.42,5.17 1.25,7.13 1.58,3.74 4.47,5.62 8.66,5.62zm-15.75 -31.96l5.91 0 0 4.8c1.22,-1.65 2.55,-2.92 3.99,-3.82 2.05,-1.35 4.47,-2.03 7.24,-2.03 4.11,0 7.58,1.57 10.44,4.72 2.86,3.14 4.29,7.63 4.29,13.46 0,7.9 -2.06,13.53 -6.19,16.91 -2.61,2.14 -5.65,3.21 -9.13,3.21 -2.72,0 -5.01,-0.59 -6.86,-1.79 -1.08,-0.67 -2.3,-1.83 -3.62,-3.48l0 18.5 -6.08 0 0 -50.48zm54.05 -0.98c2.57,0 5.07,0.6 7.48,1.81 2.41,1.2 4.25,2.76 5.5,4.67 1.22,1.83 2.03,3.96 2.43,6.39 0.37,1.68 0.54,4.33 0.54,7.99l-26.54 0c0.12,3.67 0.98,6.61 2.61,8.84 1.63,2.21 4.13,3.32 7.53,3.32 3.19,0 5.71,-1.05 7.61,-3.14 1.08,-1.22 1.86,-2.63 2.31,-4.23l5.98 0c-0.15,1.33 -0.68,2.81 -1.57,4.45 -0.89,1.63 -1.89,2.96 -2.99,4 -1.85,1.8 -4.14,3.02 -6.87,3.65 -1.47,0.37 -3.13,0.54 -4.97,0.54 -4.5,0 -8.32,-1.64 -11.46,-4.92 -3.13,-3.28 -4.7,-7.87 -4.7,-13.78 0,-5.82 1.58,-10.54 4.73,-14.16 3.16,-3.63 7.28,-5.45 12.37,-5.45zm9.71 16.03c-0.24,-2.64 -0.82,-4.74 -1.72,-6.32 -1.67,-2.93 -4.45,-4.4 -8.35,-4.4 -2.79,0 -5.14,1 -7.03,3.02 -1.89,2.02 -2.9,4.58 -3.01,7.7l20.11 0zm17.58 3.31c0,3.88 0.82,7.12 2.47,9.74 1.64,2.61 4.28,3.91 7.91,3.91 2.81,0 5.14,-1.21 6.95,-3.63 1.81,-2.42 2.72,-5.89 2.72,-10.42 0,-4.58 -0.94,-7.96 -2.81,-10.17 -1.87,-2.19 -4.18,-3.29 -6.93,-3.29 -3.06,0 -5.55,1.17 -7.46,3.51 -1.9,2.34 -2.85,5.79 -2.85,10.35zm9.16 -19.17c2.77,0 5.09,0.57 6.96,1.75 1.09,0.68 2.31,1.86 3.69,3.55l0 -18.29 5.84 0 0 49.83 -5.47 0 0 -5.04c-1.42,2.24 -3.11,3.84 -5.04,4.84 -1.94,0.99 -4.15,1.49 -6.66,1.49 -4.04,0 -7.52,-1.7 -10.48,-5.09 -2.95,-3.39 -4.43,-7.9 -4.43,-13.54 0,-5.27 1.35,-9.84 4.04,-13.71 2.7,-3.86 6.54,-5.79 11.55,-5.79zm26.95 29.47l7.06 0 0 7.37 -7.06 0 0 -7.37zm-477.24 69.24l7.06 0 0 7.37 -7.06 0 0 -7.37zm17.78 -28.84l6.01 0 0 5.15c1.44,-1.79 2.75,-3.08 3.92,-3.89 2.01,-1.38 4.28,-2.07 6.83,-2.07 2.88,0 5.2,0.72 6.96,2.13 0.99,0.81 1.89,2 2.71,3.58 1.35,-1.94 2.94,-3.37 4.77,-4.3 1.82,-0.93 3.88,-1.41 6.15,-1.41 4.87,0 8.18,1.75 9.94,5.27 0.95,1.89 1.42,4.44 1.42,7.64l0 24.11 -6.31 0 0 -25.16c0,-2.41 -0.61,-4.06 -1.81,-4.96 -1.21,-0.9 -2.68,-1.36 -4.42,-1.36 -2.39,0 -4.44,0.81 -6.16,2.4 -1.73,1.6 -2.59,4.28 -2.59,8.02l0 21.06 -6.19 0 0 -23.63c0,-2.46 -0.3,-4.25 -0.89,-5.38 -0.92,-1.69 -2.64,-2.53 -5.17,-2.53 -2.3,0 -4.38,0.89 -6.27,2.67 -1.88,1.78 -2.83,5.01 -2.83,9.67l0 19.2 -6.08 0 0 -36.21zm72.75 -0.81c2.57,0 5.07,0.6 7.48,1.81 2.41,1.2 4.25,2.76 5.5,4.67 1.22,1.83 2.03,3.96 2.43,6.39 0.37,1.68 0.54,4.33 0.54,7.99l-26.54 0c0.12,3.67 0.98,6.61 2.61,8.84 1.63,2.21 4.13,3.32 7.53,3.32 3.19,0 5.71,-1.05 7.61,-3.14 1.08,-1.22 1.86,-2.63 2.31,-4.23l5.98 0c-0.15,1.33 -0.68,2.81 -1.57,4.45 -0.89,1.63 -1.89,2.96 -2.99,4 -1.85,1.8 -4.14,3.02 -6.87,3.65 -1.47,0.37 -3.13,0.54 -4.97,0.54 -4.5,0 -8.32,-1.64 -11.46,-4.92 -3.13,-3.28 -4.7,-7.87 -4.7,-13.78 0,-5.82 1.58,-10.54 4.73,-14.16 3.16,-3.63 7.28,-5.45 12.37,-5.45zm9.71 16.03c-0.24,-2.64 -0.82,-4.74 -1.72,-6.32 -1.67,-2.93 -4.45,-4.4 -8.35,-4.4 -2.79,0 -5.14,1 -7.03,3.02 -1.89,2.02 -2.9,4.58 -3.01,7.7l20.11 0zm13.89 -28.68l6.09 0 0 49.67 -6.09 0 0 -49.67zm29.59 45.75c4.03,0 6.8,-1.52 8.3,-4.58 1.5,-3.04 2.25,-6.45 2.25,-10.19 0,-3.38 -0.54,-6.13 -1.63,-8.25 -1.71,-3.33 -4.66,-5.01 -8.85,-5.01 -3.73,0 -6.43,1.42 -8.12,4.27 -1.69,2.84 -2.54,6.27 -2.54,10.27 0,3.85 0.84,7.07 2.54,9.64 1.69,2.57 4.36,3.85 8.04,3.85zm0.23 -33.34c4.67,0 8.61,1.56 11.84,4.67 3.22,3.1 4.84,7.69 4.84,13.72 0,5.84 -1.42,10.66 -4.26,14.47 -2.85,3.81 -7.25,5.71 -13.23,5.71 -4.98,0 -8.93,-1.69 -11.86,-5.06 -2.93,-3.37 -4.4,-7.89 -4.4,-13.57 0,-6.08 1.55,-10.93 4.63,-14.54 3.09,-3.6 7.23,-5.41 12.44,-5.41zm27.76 19.58c0,3.88 0.82,7.12 2.47,9.74 1.64,2.61 4.28,3.91 7.91,3.91 2.81,0 5.14,-1.21 6.95,-3.63 1.81,-2.42 2.72,-5.89 2.72,-10.42 0,-4.58 -0.94,-7.96 -2.81,-10.17 -1.87,-2.19 -4.18,-3.29 -6.93,-3.29 -3.06,0 -5.55,1.17 -7.46,3.51 -1.9,2.34 -2.85,5.79 -2.85,10.35zm9.16 -19.17c2.77,0 5.09,0.57 6.96,1.75 1.09,0.68 2.31,1.86 3.69,3.55l0 -18.29 5.84 0 0 49.83 -5.47 0 0 -5.04c-1.42,2.24 -3.11,3.84 -5.04,4.84 -1.94,0.99 -4.15,1.49 -6.66,1.49 -4.04,0 -7.52,-1.7 -10.48,-5.09 -2.95,-3.39 -4.43,-7.9 -4.43,-13.54 0,-5.27 1.35,-9.84 4.04,-13.71 2.7,-3.86 6.54,-5.79 11.55,-5.79zm25.49 0.81l6.19 0 0 36.04 -6.19 0 0 -36.04zm0 -13.63l6.19 0 0 6.9 -6.19 0 0 -6.9zm30.45 12.65c2.57,0 5.07,0.6 7.48,1.81 2.41,1.2 4.25,2.76 5.5,4.67 1.22,1.83 2.03,3.96 2.43,6.39 0.37,1.68 0.54,4.33 0.54,7.99l-26.54 0c0.12,3.67 0.98,6.61 2.61,8.84 1.63,2.21 4.13,3.32 7.53,3.32 3.19,0 5.71,-1.05 7.61,-3.14 1.08,-1.22 1.86,-2.63 2.31,-4.23l5.98 0c-0.15,1.33 -0.68,2.81 -1.57,4.45 -0.89,1.63 -1.89,2.96 -2.99,4 -1.85,1.8 -4.14,3.02 -6.87,3.65 -1.47,0.37 -3.13,0.54 -4.97,0.54 -4.5,0 -8.32,-1.64 -11.46,-4.92 -3.13,-3.28 -4.7,-7.87 -4.7,-13.78 0,-5.82 1.58,-10.54 4.73,-14.16 3.16,-3.63 7.28,-5.45 12.37,-5.45zm9.71 16.03c-0.24,-2.64 -0.82,-4.74 -1.72,-6.32 -1.67,-2.93 -4.45,-4.4 -8.35,-4.4 -2.79,0 -5.14,1 -7.03,3.02 -1.89,2.02 -2.9,4.58 -3.01,7.7l20.11 0zm17.34 9.64c0.19,2.02 0.69,3.58 1.52,4.66 1.54,1.96 4.19,2.94 7.97,2.94 2.26,0 4.25,-0.5 5.96,-1.48 1.72,-0.98 2.57,-2.5 2.57,-4.55 0,-1.55 -0.69,-2.73 -2.07,-3.54 -0.87,-0.5 -2.62,-1.07 -5.2,-1.73l-4.84 -1.21c-3.09,-0.77 -5.37,-1.63 -6.83,-2.57 -2.61,-1.64 -3.92,-3.93 -3.92,-6.83 0,-3.43 1.23,-6.2 3.7,-8.31 2.47,-2.12 5.79,-3.19 9.96,-3.19 5.46,0 9.38,1.6 11.8,4.8 1.51,2.03 2.25,4.23 2.2,6.57l-5.75 0c-0.12,-1.37 -0.6,-2.63 -1.45,-3.76 -1.4,-1.59 -3.82,-2.4 -7.27,-2.4 -2.3,0 -4.04,0.45 -5.23,1.33 -1.18,0.88 -1.78,2.03 -1.78,3.47 0,1.58 0.78,2.85 2.34,3.8 0.9,0.55 2.23,1.05 3.98,1.48l4.03 0.98c4.37,1.06 7.31,2.09 8.79,3.08 2.37,1.56 3.54,4.01 3.54,7.34 0,3.22 -1.22,6 -3.67,8.34 -2.45,2.35 -6.16,3.52 -11.17,3.52 -5.39,0 -9.2,-1.22 -11.45,-3.67 -2.24,-2.45 -3.44,-5.47 -3.6,-9.07l5.85 0zm32.46 3.98l7.06 0 0 7.37 -7.06 0 0 -7.37zm38.47 0l7.06 0 0 7.37 -7.06 0 0 -7.37zm17.95 -42.3l6.09 0 0 49.67 -6.09 0 0 -49.67zm29.59 45.75c4.03,0 6.8,-1.52 8.3,-4.58 1.5,-3.04 2.25,-6.45 2.25,-10.19 0,-3.38 -0.54,-6.13 -1.63,-8.25 -1.71,-3.33 -4.66,-5.01 -8.85,-5.01 -3.73,0 -6.43,1.42 -8.12,4.27 -1.69,2.84 -2.54,6.27 -2.54,10.27 0,3.85 0.84,7.07 2.54,9.64 1.69,2.57 4.36,3.85 8.04,3.85zm0.23 -33.34c4.67,0 8.61,1.56 11.84,4.67 3.22,3.1 4.84,7.69 4.84,13.72 0,5.84 -1.42,10.66 -4.26,14.47 -2.85,3.81 -7.25,5.71 -13.23,5.71 -4.98,0 -8.93,-1.69 -11.86,-5.06 -2.93,-3.37 -4.4,-7.89 -4.4,-13.57 0,-6.08 1.55,-10.93 4.63,-14.54 3.09,-3.6 7.23,-5.41 12.44,-5.41zm38.28 33.34c4.03,0 6.8,-1.52 8.3,-4.58 1.5,-3.04 2.25,-6.45 2.25,-10.19 0,-3.38 -0.54,-6.13 -1.63,-8.25 -1.71,-3.33 -4.66,-5.01 -8.85,-5.01 -3.73,0 -6.43,1.42 -8.12,4.27 -1.69,2.84 -2.54,6.27 -2.54,10.27 0,3.85 0.84,7.07 2.54,9.64 1.69,2.57 4.36,3.85 8.04,3.85zm0.23 -33.34c4.67,0 8.61,1.56 11.84,4.67 3.22,3.1 4.84,7.69 4.84,13.72 0,5.84 -1.42,10.66 -4.26,14.47 -2.85,3.81 -7.25,5.71 -13.23,5.71 -4.98,0 -8.93,-1.69 -11.86,-5.06 -2.93,-3.37 -4.4,-7.89 -4.4,-13.57 0,-6.08 1.55,-10.93 4.63,-14.54 3.09,-3.6 7.23,-5.41 12.44,-5.41zm39.19 33.18c2.84,0 5.2,-1.2 7.08,-3.58 1.88,-2.38 2.82,-5.93 2.82,-10.66 0,-2.89 -0.42,-5.37 -1.25,-7.43 -1.58,-3.99 -4.47,-5.99 -8.65,-5.99 -4.21,0 -7.1,2.11 -8.66,6.32 -0.83,2.25 -1.25,5.11 -1.25,8.58 0,2.79 0.42,5.17 1.25,7.13 1.58,3.74 4.47,5.62 8.66,5.62zm-15.75 -31.96l5.91 0 0 4.8c1.22,-1.65 2.55,-2.92 3.99,-3.82 2.05,-1.35 4.47,-2.03 7.24,-2.03 4.11,0 7.58,1.57 10.44,4.72 2.86,3.14 4.29,7.63 4.29,13.46 0,7.9 -2.06,13.53 -6.19,16.91 -2.61,2.14 -5.65,3.21 -9.13,3.21 -2.72,0 -5.01,-0.59 -6.86,-1.79 -1.08,-0.67 -2.3,-1.83 -3.62,-3.48l0 18.5 -6.08 0 0 -50.48zm54.05 -0.98c2.57,0 5.07,0.6 7.48,1.81 2.41,1.2 4.25,2.76 5.5,4.67 1.22,1.83 2.03,3.96 2.43,6.39 0.37,1.68 0.54,4.33 0.54,7.99l-26.54 0c0.12,3.67 0.98,6.61 2.61,8.84 1.63,2.21 4.13,3.32 7.53,3.32 3.19,0 5.71,-1.05 7.61,-3.14 1.08,-1.22 1.86,-2.63 2.31,-4.23l5.98 0c-0.15,1.33 -0.68,2.81 -1.57,4.45 -0.89,1.63 -1.89,2.96 -2.99,4 -1.85,1.8 -4.14,3.02 -6.87,3.65 -1.47,0.37 -3.13,0.54 -4.97,0.54 -4.5,0 -8.32,-1.64 -11.46,-4.92 -3.13,-3.28 -4.7,-7.87 -4.7,-13.78 0,-5.82 1.58,-10.54 4.73,-14.16 3.16,-3.63 7.28,-5.45 12.37,-5.45zm9.71 16.03c-0.24,-2.64 -0.82,-4.74 -1.72,-6.32 -1.67,-2.93 -4.45,-4.4 -8.35,-4.4 -2.79,0 -5.14,1 -7.03,3.02 -1.89,2.02 -2.9,4.58 -3.01,7.7l20.11 0zm17.58 3.31c0,3.88 0.82,7.12 2.47,9.74 1.64,2.61 4.28,3.91 7.91,3.91 2.81,0 5.14,-1.21 6.95,-3.63 1.81,-2.42 2.72,-5.89 2.72,-10.42 0,-4.58 -0.94,-7.96 -2.81,-10.17 -1.87,-2.19 -4.18,-3.29 -6.93,-3.29 -3.06,0 -5.55,1.17 -7.46,3.51 -1.9,2.34 -2.85,5.79 -2.85,10.35zm9.16 -19.17c2.77,0 5.09,0.57 6.96,1.75 1.09,0.68 2.31,1.86 3.69,3.55l0 -18.29 5.84 0 0 49.83 -5.47 0 0 -5.04c-1.42,2.24 -3.11,3.84 -5.04,4.84 -1.94,0.99 -4.15,1.49 -6.66,1.49 -4.04,0 -7.52,-1.7 -10.48,-5.09 -2.95,-3.39 -4.43,-7.9 -4.43,-13.54 0,-5.27 1.35,-9.84 4.04,-13.71 2.7,-3.86 6.54,-5.79 11.55,-5.79zm26.95 29.47l7.06 0 0 7.37 -7.06 0 0 -7.37zm-561.96 69.24l7.06 0 0 7.37 -7.06 0 0 -7.37zm21.39 -3.98c0.19,2.02 0.69,3.58 1.52,4.66 1.54,1.96 4.19,2.94 7.97,2.94 2.26,0 4.25,-0.5 5.96,-1.48 1.72,-0.98 2.57,-2.5 2.57,-4.55 0,-1.55 -0.69,-2.73 -2.07,-3.54 -0.87,-0.5 -2.62,-1.07 -5.2,-1.73l-4.84 -1.21c-3.09,-0.77 -5.37,-1.63 -6.83,-2.57 -2.61,-1.64 -3.92,-3.93 -3.92,-6.83 0,-3.43 1.23,-6.2 3.7,-8.31 2.47,-2.12 5.79,-3.19 9.96,-3.19 5.46,0 9.38,1.6 11.8,4.8 1.51,2.03 2.25,4.23 2.2,6.57l-5.75 0c-0.12,-1.37 -0.6,-2.63 -1.45,-3.76 -1.4,-1.59 -3.82,-2.4 -7.27,-2.4 -2.3,0 -4.04,0.45 -5.23,1.33 -1.18,0.88 -1.78,2.03 -1.78,3.47 0,1.58 0.78,2.85 2.34,3.8 0.9,0.55 2.23,1.05 3.98,1.48l4.03 0.98c4.37,1.06 7.31,2.09 8.79,3.08 2.37,1.56 3.54,4.01 3.54,7.34 0,3.22 -1.22,6 -3.67,8.34 -2.45,2.35 -6.16,3.52 -11.17,3.52 -5.39,0 -9.2,-1.22 -11.45,-3.67 -2.24,-2.45 -3.44,-5.47 -3.6,-9.07l5.85 0zm45.37 7.43c4.03,0 6.8,-1.52 8.3,-4.58 1.5,-3.04 2.25,-6.45 2.25,-10.19 0,-3.38 -0.54,-6.13 -1.63,-8.25 -1.71,-3.33 -4.66,-5.01 -8.85,-5.01 -3.73,0 -6.43,1.42 -8.12,4.27 -1.69,2.84 -2.54,6.27 -2.54,10.27 0,3.85 0.84,7.07 2.54,9.64 1.69,2.57 4.36,3.85 8.04,3.85zm0.23 -33.34c4.67,0 8.61,1.56 11.84,4.67 3.22,3.1 4.84,7.69 4.84,13.72 0,5.84 -1.42,10.66 -4.26,14.47 -2.85,3.81 -7.25,5.71 -13.23,5.71 -4.98,0 -8.93,-1.69 -11.86,-5.06 -2.93,-3.37 -4.4,-7.89 -4.4,-13.57 0,-6.08 1.55,-10.93 4.63,-14.54 3.09,-3.6 7.23,-5.41 12.44,-5.41zm29.99 1.05l0 24.04c0,1.85 0.29,3.36 0.88,4.53 1.08,2.16 3.11,3.24 6.06,3.24 4.24,0 7.12,-1.89 8.65,-5.68 0.83,-2.03 1.25,-4.81 1.25,-8.35l0 -17.78 6.08 0 0 36.21 -5.75 0 0.07 -5.34c-0.78,1.37 -1.77,2.54 -2.94,3.48 -2.32,1.89 -5.14,2.84 -8.45,2.84 -5.16,0 -8.68,-1.72 -10.55,-5.17 -1.01,-1.85 -1.52,-4.32 -1.52,-7.41l0 -24.61 6.22 0zm32.43 0l5.78 0 0 5.15c1.71,-2.12 3.52,-3.65 5.44,-4.57 1.92,-0.92 4.05,-1.38 6.39,-1.38 5.13,0 8.61,1.79 10.41,5.38 0.99,1.96 1.49,4.76 1.49,8.41l0 23.23 -6.19 0 0 -22.83c0,-2.2 -0.32,-3.98 -0.98,-5.33 -1.08,-2.26 -3.03,-3.38 -5.88,-3.38 -1.44,0 -2.62,0.14 -3.54,0.44 -1.68,0.5 -3.14,1.49 -4.4,2.97 -1.02,1.2 -1.68,2.43 -1.98,3.7 -0.31,1.28 -0.46,3.09 -0.46,5.46l0 18.97 -6.08 0 0 -36.21zm42.36 18.53c0,3.88 0.82,7.12 2.47,9.74 1.64,2.61 4.28,3.91 7.91,3.91 2.81,0 5.14,-1.21 6.95,-3.63 1.81,-2.42 2.72,-5.89 2.72,-10.42 0,-4.58 -0.94,-7.96 -2.81,-10.17 -1.87,-2.19 -4.18,-3.29 -6.93,-3.29 -3.06,0 -5.55,1.17 -7.46,3.51 -1.9,2.34 -2.85,5.79 -2.85,10.35zm9.16 -19.17c2.77,0 5.09,0.57 6.96,1.75 1.09,0.68 2.31,1.86 3.69,3.55l0 -18.29 5.84 0 0 49.83 -5.47 0 0 -5.04c-1.42,2.24 -3.11,3.84 -5.04,4.84 -1.94,0.99 -4.15,1.49 -6.66,1.49 -4.04,0 -7.52,-1.7 -10.48,-5.09 -2.95,-3.39 -4.43,-7.9 -4.43,-13.54 0,-5.27 1.35,-9.84 4.04,-13.71 2.7,-3.86 6.54,-5.79 11.55,-5.79zm29.1 25.49c0.19,2.02 0.69,3.58 1.52,4.66 1.54,1.96 4.19,2.94 7.97,2.94 2.26,0 4.25,-0.5 5.96,-1.48 1.72,-0.98 2.57,-2.5 2.57,-4.55 0,-1.55 -0.69,-2.73 -2.07,-3.54 -0.87,-0.5 -2.62,-1.07 -5.2,-1.73l-4.84 -1.21c-3.09,-0.77 -5.37,-1.63 -6.83,-2.57 -2.61,-1.64 -3.92,-3.93 -3.92,-6.83 0,-3.43 1.23,-6.2 3.7,-8.31 2.47,-2.12 5.79,-3.19 9.96,-3.19 5.46,0 9.38,1.6 11.8,4.8 1.51,2.03 2.25,4.23 2.2,6.57l-5.75 0c-0.12,-1.37 -0.6,-2.63 -1.45,-3.76 -1.4,-1.59 -3.82,-2.4 -7.27,-2.4 -2.3,0 -4.04,0.45 -5.23,1.33 -1.18,0.88 -1.78,2.03 -1.78,3.47 0,1.58 0.78,2.85 2.34,3.8 0.9,0.55 2.23,1.05 3.98,1.48l4.03 0.98c4.37,1.06 7.31,2.09 8.79,3.08 2.37,1.56 3.54,4.01 3.54,7.34 0,3.22 -1.22,6 -3.67,8.34 -2.45,2.35 -6.16,3.52 -11.17,3.52 -5.39,0 -9.2,-1.22 -11.45,-3.67 -2.24,-2.45 -3.44,-5.47 -3.6,-9.07l5.85 0zm32.46 3.98l7.06 0 0 7.37 -7.06 0 0 -7.37zm38.47 0l7.06 0 0 7.37 -7.06 0 0 -7.37zm17.78 -28.84l5.78 0 0 5.15c1.71,-2.12 3.52,-3.65 5.44,-4.57 1.92,-0.92 4.05,-1.38 6.39,-1.38 5.13,0 8.61,1.79 10.41,5.38 0.99,1.96 1.49,4.76 1.49,8.41l0 23.23 -6.19 0 0 -22.83c0,-2.2 -0.32,-3.98 -0.98,-5.33 -1.08,-2.26 -3.03,-3.38 -5.88,-3.38 -1.44,0 -2.62,0.14 -3.54,0.44 -1.68,0.5 -3.14,1.49 -4.4,2.97 -1.02,1.2 -1.68,2.43 -1.98,3.7 -0.31,1.28 -0.46,3.09 -0.46,5.46l0 18.97 -6.08 0 0 -36.21zm52.88 32.29c4.03,0 6.8,-1.52 8.3,-4.58 1.5,-3.04 2.25,-6.45 2.25,-10.19 0,-3.38 -0.54,-6.13 -1.63,-8.25 -1.71,-3.33 -4.66,-5.01 -8.85,-5.01 -3.73,0 -6.43,1.42 -8.12,4.27 -1.69,2.84 -2.54,6.27 -2.54,10.27 0,3.85 0.84,7.07 2.54,9.64 1.69,2.57 4.36,3.85 8.04,3.85zm0.23 -33.34c4.67,0 8.61,1.56 11.84,4.67 3.22,3.1 4.84,7.69 4.84,13.72 0,5.84 -1.42,10.66 -4.26,14.47 -2.85,3.81 -7.25,5.71 -13.23,5.71 -4.98,0 -8.93,-1.69 -11.86,-5.06 -2.93,-3.37 -4.4,-7.89 -4.4,-13.57 0,-6.08 1.55,-10.93 4.63,-14.54 3.09,-3.6 7.23,-5.41 12.44,-5.41zm23.91 1.05l5.78 0 0 5.15c1.71,-2.12 3.52,-3.65 5.44,-4.57 1.92,-0.92 4.05,-1.38 6.39,-1.38 5.13,0 8.61,1.79 10.41,5.38 0.99,1.96 1.49,4.76 1.49,8.41l0 23.23 -6.19 0 0 -22.83c0,-2.2 -0.32,-3.98 -0.98,-5.33 -1.08,-2.26 -3.03,-3.38 -5.88,-3.38 -1.44,0 -2.62,0.14 -3.54,0.44 -1.68,0.5 -3.14,1.49 -4.4,2.97 -1.02,1.2 -1.68,2.43 -1.98,3.7 -0.31,1.28 -0.46,3.09 -0.46,5.46l0 18.97 -6.08 0 0 -36.21zm39.96 28.84l7.06 0 0 7.37 -7.06 0 0 -7.37zm17.95 -42.3l6.09 0 0 49.67 -6.09 0 0 -49.67z"/>
     <path class="fil2" d="M1698.66 529.33c4.03,0 6.8,-1.52 8.3,-4.58 1.5,-3.04 2.25,-6.45 2.25,-10.19 0,-3.38 -0.54,-6.13 -1.63,-8.25 -1.71,-3.33 -4.66,-5.01 -8.85,-5.01 -3.73,0 -6.43,1.42 -8.12,4.27 -1.69,2.84 -2.54,6.27 -2.54,10.27 0,3.85 0.84,7.07 2.54,9.64 1.69,2.57 4.36,3.85 8.04,3.85zm0.23 -33.34c4.67,0 8.61,1.56 11.84,4.67 3.22,3.1 4.84,7.69 4.84,13.72 0,5.84 -1.42,10.66 -4.26,14.47 -2.85,3.81 -7.25,5.71 -13.23,5.71 -4.98,0 -8.93,-1.69 -11.86,-5.06 -2.93,-3.37 -4.4,-7.89 -4.4,-13.57 0,-6.08 1.55,-10.93 4.63,-14.54 3.09,-3.6 7.23,-5.41 12.44,-5.41zm38.28 33.34c4.03,0 6.8,-1.52 8.3,-4.58 1.5,-3.04 2.25,-6.45 2.25,-10.19 0,-3.38 -0.54,-6.13 -1.63,-8.25 -1.71,-3.33 -4.66,-5.01 -8.85,-5.01 -3.73,0 -6.43,1.42 -8.12,4.27 -1.69,2.84 -2.54,6.27 -2.54,10.27 0,3.85 0.84,7.07 2.54,9.64 1.69,2.57 4.36,3.85 8.04,3.85zm0.23 -33.34c4.67,0 8.61,1.56 11.84,4.67 3.22,3.1 4.84,7.69 4.84,13.72 0,5.84 -1.42,10.66 -4.26,14.47 -2.85,3.81 -7.25,5.71 -13.23,5.71 -4.98,0 -8.93,-1.69 -11.86,-5.06 -2.93,-3.37 -4.4,-7.89 -4.4,-13.57 0,-6.08 1.55,-10.93 4.63,-14.54 3.09,-3.6 7.23,-5.41 12.44,-5.41zm39.19 33.18c2.84,0 5.2,-1.2 7.08,-3.58 1.88,-2.38 2.82,-5.93 2.82,-10.66 0,-2.89 -0.42,-5.37 -1.25,-7.43 -1.58,-3.99 -4.47,-5.99 -8.65,-5.99 -4.21,0 -7.1,2.11 -8.66,6.32 -0.83,2.25 -1.25,5.11 -1.25,8.58 0,2.79 0.42,5.17 1.25,7.13 1.58,3.74 4.47,5.62 8.66,5.62zm-15.75 -31.96l5.91 0 0 4.8c1.22,-1.65 2.55,-2.92 3.99,-3.82 2.05,-1.35 4.47,-2.03 7.24,-2.03 4.11,0 7.58,1.57 10.44,4.72 2.86,3.14 4.29,7.63 4.29,13.46 0,7.9 -2.06,13.53 -6.19,16.91 -2.61,2.14 -5.65,3.21 -9.13,3.21 -2.72,0 -5.01,-0.59 -6.86,-1.79 -1.08,-0.67 -2.3,-1.83 -3.62,-3.48l0 18.5 -6.08 0 0 -50.48zm54.05 -0.98c2.57,0 5.07,0.6 7.48,1.81 2.41,1.2 4.25,2.76 5.5,4.67 1.22,1.83 2.03,3.96 2.43,6.39 0.37,1.68 0.54,4.33 0.54,7.99l-26.54 0c0.12,3.67 0.98,6.61 2.61,8.84 1.63,2.21 4.13,3.32 7.53,3.32 3.19,0 5.71,-1.05 7.61,-3.14 1.08,-1.22 1.86,-2.63 2.31,-4.23l5.98 0c-0.15,1.33 -0.68,2.81 -1.57,4.45 -0.89,1.63 -1.89,2.96 -2.99,4 -1.85,1.8 -4.14,3.02 -6.87,3.65 -1.47,0.37 -3.13,0.54 -4.97,0.54 -4.5,0 -8.32,-1.64 -11.46,-4.92 -3.13,-3.28 -4.7,-7.87 -4.7,-13.78 0,-5.82 1.58,-10.54 4.73,-14.16 3.16,-3.63 7.28,-5.45 12.37,-5.45zm9.71 16.03c-0.24,-2.64 -0.82,-4.74 -1.72,-6.32 -1.67,-2.93 -4.45,-4.4 -8.35,-4.4 -2.79,0 -5.14,1 -7.03,3.02 -1.89,2.02 -2.9,4.58 -3.01,7.7l20.11 0zm17.58 3.31c0,3.88 0.82,7.12 2.47,9.74 1.64,2.61 4.28,3.91 7.91,3.91 2.81,0 5.14,-1.21 6.95,-3.63 1.81,-2.42 2.72,-5.89 2.72,-10.42 0,-4.58 -0.94,-7.96 -2.81,-10.17 -1.87,-2.19 -4.18,-3.29 -6.93,-3.29 -3.06,0 -5.55,1.17 -7.46,3.51 -1.9,2.34 -2.85,5.79 -2.85,10.35zm9.16 -19.17c2.77,0 5.09,0.57 6.96,1.75 1.09,0.68 2.31,1.86 3.69,3.55l0 -18.29 5.84 0 0 49.83 -5.47 0 0 -5.04c-1.42,2.24 -3.11,3.84 -5.04,4.84 -1.94,0.99 -4.15,1.49 -6.66,1.49 -4.04,0 -7.52,-1.7 -10.48,-5.09 -2.95,-3.39 -4.43,-7.9 -4.43,-13.54 0,-5.27 1.35,-9.84 4.04,-13.71 2.7,-3.86 6.54,-5.79 11.55,-5.79zm26.95 29.47l7.06 0 0 7.37 -7.06 0 0 -7.37zm-642.9 69.24l7.06 0 0 7.37 -7.06 0 0 -7.37zm21.39 -3.98c0.19,2.02 0.69,3.58 1.52,4.66 1.54,1.96 4.19,2.94 7.97,2.94 2.26,0 4.25,-0.5 5.96,-1.48 1.72,-0.98 2.57,-2.5 2.57,-4.55 0,-1.55 -0.69,-2.73 -2.07,-3.54 -0.87,-0.5 -2.62,-1.07 -5.2,-1.73l-4.84 -1.21c-3.09,-0.77 -5.37,-1.63 -6.83,-2.57 -2.61,-1.64 -3.92,-3.93 -3.92,-6.83 0,-3.43 1.23,-6.2 3.7,-8.31 2.47,-2.12 5.79,-3.19 9.96,-3.19 5.46,0 9.38,1.6 11.8,4.8 1.51,2.03 2.25,4.23 2.2,6.57l-5.75 0c-0.12,-1.37 -0.6,-2.63 -1.45,-3.76 -1.4,-1.59 -3.82,-2.4 -7.27,-2.4 -2.3,0 -4.04,0.45 -5.23,1.33 -1.18,0.88 -1.78,2.03 -1.78,3.47 0,1.58 0.78,2.85 2.34,3.8 0.9,0.55 2.23,1.05 3.98,1.48l4.03 0.98c4.37,1.06 7.31,2.09 8.79,3.08 2.37,1.56 3.54,4.01 3.54,7.34 0,3.22 -1.22,6 -3.67,8.34 -2.45,2.35 -6.16,3.52 -11.17,3.52 -5.39,0 -9.2,-1.22 -11.45,-3.67 -2.24,-2.45 -3.44,-5.47 -3.6,-9.07l5.85 0zm45.37 7.43c4.03,0 6.8,-1.52 8.3,-4.58 1.5,-3.04 2.25,-6.45 2.25,-10.19 0,-3.38 -0.54,-6.13 -1.63,-8.25 -1.71,-3.33 -4.66,-5.01 -8.85,-5.01 -3.73,0 -6.43,1.42 -8.12,4.27 -1.69,2.84 -2.54,6.27 -2.54,10.27 0,3.85 0.84,7.07 2.54,9.64 1.69,2.57 4.36,3.85 8.04,3.85zm0.23 -33.34c4.67,0 8.61,1.56 11.84,4.67 3.22,3.1 4.84,7.69 4.84,13.72 0,5.84 -1.42,10.66 -4.26,14.47 -2.85,3.81 -7.25,5.71 -13.23,5.71 -4.98,0 -8.93,-1.69 -11.86,-5.06 -2.93,-3.37 -4.4,-7.89 -4.4,-13.57 0,-6.08 1.55,-10.93 4.63,-14.54 3.09,-3.6 7.23,-5.41 12.44,-5.41zm29.99 1.05l0 24.04c0,1.85 0.29,3.36 0.88,4.53 1.08,2.16 3.11,3.24 6.06,3.24 4.24,0 7.12,-1.89 8.65,-5.68 0.83,-2.03 1.25,-4.81 1.25,-8.35l0 -17.78 6.08 0 0 36.21 -5.75 0 0.07 -5.34c-0.78,1.37 -1.77,2.54 -2.94,3.48 -2.32,1.89 -5.14,2.84 -8.45,2.84 -5.16,0 -8.68,-1.72 -10.55,-5.17 -1.01,-1.85 -1.52,-4.32 -1.52,-7.41l0 -24.61 6.22 0zm32.43 0l5.78 0 0 5.15c1.71,-2.12 3.52,-3.65 5.44,-4.57 1.92,-0.92 4.05,-1.38 6.39,-1.38 5.13,0 8.61,1.79 10.41,5.38 0.99,1.96 1.49,4.76 1.49,8.41l0 23.23 -6.19 0 0 -22.83c0,-2.2 -0.32,-3.98 -0.98,-5.33 -1.08,-2.26 -3.03,-3.38 -5.88,-3.38 -1.44,0 -2.62,0.14 -3.54,0.44 -1.68,0.5 -3.14,1.49 -4.4,2.97 -1.02,1.2 -1.68,2.43 -1.98,3.7 -0.31,1.28 -0.46,3.09 -0.46,5.46l0 18.97 -6.08 0 0 -36.21zm42.36 18.53c0,3.88 0.82,7.12 2.47,9.74 1.64,2.61 4.28,3.91 7.91,3.91 2.81,0 5.14,-1.21 6.95,-3.63 1.81,-2.42 2.72,-5.89 2.72,-10.42 0,-4.58 -0.94,-7.96 -2.81,-10.17 -1.87,-2.19 -4.18,-3.29 -6.93,-3.29 -3.06,0 -5.55,1.17 -7.46,3.51 -1.9,2.34 -2.85,5.79 -2.85,10.35zm9.16 -19.17c2.77,0 5.09,0.57 6.96,1.75 1.09,0.68 2.31,1.86 3.69,3.55l0 -18.29 5.84 0 0 49.83 -5.47 0 0 -5.04c-1.42,2.24 -3.11,3.84 -5.04,4.84 -1.94,0.99 -4.15,1.49 -6.66,1.49 -4.04,0 -7.52,-1.7 -10.48,-5.09 -2.95,-3.39 -4.43,-7.9 -4.43,-13.54 0,-5.27 1.35,-9.84 4.04,-13.71 2.7,-3.86 6.54,-5.79 11.55,-5.79zm29.1 25.49c0.19,2.02 0.69,3.58 1.52,4.66 1.54,1.96 4.19,2.94 7.97,2.94 2.26,0 4.25,-0.5 5.96,-1.48 1.72,-0.98 2.57,-2.5 2.57,-4.55 0,-1.55 -0.69,-2.73 -2.07,-3.54 -0.87,-0.5 -2.62,-1.07 -5.2,-1.73l-4.84 -1.21c-3.09,-0.77 -5.37,-1.63 -6.83,-2.57 -2.61,-1.64 -3.92,-3.93 -3.92,-6.83 0,-3.43 1.23,-6.2 3.7,-8.31 2.47,-2.12 5.79,-3.19 9.96,-3.19 5.46,0 9.38,1.6 11.8,4.8 1.51,2.03 2.25,4.23 2.2,6.57l-5.75 0c-0.12,-1.37 -0.6,-2.63 -1.45,-3.76 -1.4,-1.59 -3.82,-2.4 -7.27,-2.4 -2.3,0 -4.04,0.45 -5.23,1.33 -1.18,0.88 -1.78,2.03 -1.78,3.47 0,1.58 0.78,2.85 2.34,3.8 0.9,0.55 2.23,1.05 3.98,1.48l4.03 0.98c4.37,1.06 7.31,2.09 8.79,3.08 2.37,1.56 3.54,4.01 3.54,7.34 0,3.22 -1.22,6 -3.67,8.34 -2.45,2.35 -6.16,3.52 -11.17,3.52 -5.39,0 -9.2,-1.22 -11.45,-3.67 -2.24,-2.45 -3.44,-5.47 -3.6,-9.07l5.85 0zm32.46 3.98l7.06 0 0 7.37 -7.06 0 0 -7.37zm38.47 0l7.06 0 0 7.37 -7.06 0 0 -7.37zm17.78 -28.84l5.78 0 0 5.15c1.71,-2.12 3.52,-3.65 5.44,-4.57 1.92,-0.92 4.05,-1.38 6.39,-1.38 5.13,0 8.61,1.79 10.41,5.38 0.99,1.96 1.49,4.76 1.49,8.41l0 23.23 -6.19 0 0 -22.83c0,-2.2 -0.32,-3.98 -0.98,-5.33 -1.08,-2.26 -3.03,-3.38 -5.88,-3.38 -1.44,0 -2.62,0.14 -3.54,0.44 -1.68,0.5 -3.14,1.49 -4.4,2.97 -1.02,1.2 -1.68,2.43 -1.98,3.7 -0.31,1.28 -0.46,3.09 -0.46,5.46l0 18.97 -6.08 0 0 -36.21zm52.88 32.29c4.03,0 6.8,-1.52 8.3,-4.58 1.5,-3.04 2.25,-6.45 2.25,-10.19 0,-3.38 -0.54,-6.13 -1.63,-8.25 -1.71,-3.33 -4.66,-5.01 -8.85,-5.01 -3.73,0 -6.43,1.42 -8.12,4.27 -1.69,2.84 -2.54,6.27 -2.54,10.27 0,3.85 0.84,7.07 2.54,9.64 1.69,2.57 4.36,3.85 8.04,3.85zm0.23 -33.34c4.67,0 8.61,1.56 11.84,4.67 3.22,3.1 4.84,7.69 4.84,13.72 0,5.84 -1.42,10.66 -4.26,14.47 -2.85,3.81 -7.25,5.71 -13.23,5.71 -4.98,0 -8.93,-1.69 -11.86,-5.06 -2.93,-3.37 -4.4,-7.89 -4.4,-13.57 0,-6.08 1.55,-10.93 4.63,-14.54 3.09,-3.6 7.23,-5.41 12.44,-5.41zm23.91 1.05l5.78 0 0 5.15c1.71,-2.12 3.52,-3.65 5.44,-4.57 1.92,-0.92 4.05,-1.38 6.39,-1.38 5.13,0 8.61,1.79 10.41,5.38 0.99,1.96 1.49,4.76 1.49,8.41l0 23.23 -6.19 0 0 -22.83c0,-2.2 -0.32,-3.98 -0.98,-5.33 -1.08,-2.26 -3.03,-3.38 -5.88,-3.38 -1.44,0 -2.62,0.14 -3.54,0.44 -1.68,0.5 -3.14,1.49 -4.4,2.97 -1.02,1.2 -1.68,2.43 -1.98,3.7 -0.31,1.28 -0.46,3.09 -0.46,5.46l0 18.97 -6.08 0 0 -36.21zm39.96 28.84l7.06 0 0 7.37 -7.06 0 0 -7.37zm17.95 -42.3l6.09 0 0 49.67 -6.09 0 0 -49.67zm29.59 45.75c4.03,0 6.8,-1.52 8.3,-4.58 1.5,-3.04 2.25,-6.45 2.25,-10.19 0,-3.38 -0.54,-6.13 -1.63,-8.25 -1.71,-3.33 -4.66,-5.01 -8.85,-5.01 -3.73,0 -6.43,1.42 -8.12,4.27 -1.69,2.84 -2.54,6.27 -2.54,10.27 0,3.85 0.84,7.07 2.54,9.64 1.69,2.57 4.36,3.85 8.04,3.85zm0.23 -33.34c4.67,0 8.61,1.56 11.84,4.67 3.22,3.1 4.84,7.69 4.84,13.72 0,5.84 -1.42,10.66 -4.26,14.47 -2.85,3.81 -7.25,5.71 -13.23,5.71 -4.98,0 -8.93,-1.69 -11.86,-5.06 -2.93,-3.37 -4.4,-7.89 -4.4,-13.57 0,-6.08 1.55,-10.93 4.63,-14.54 3.09,-3.6 7.23,-5.41 12.44,-5.41zm38.28 33.34c4.03,0 6.8,-1.52 8.3,-4.58 1.5,-3.04 2.25,-6.45 2.25,-10.19 0,-3.38 -0.54,-6.13 -1.63,-8.25 -1.71,-3.33 -4.66,-5.01 -8.85,-5.01 -3.73,0 -6.43,1.42 -8.12,4.27 -1.69,2.84 -2.54,6.27 -2.54,10.27 0,3.85 0.84,7.07 2.54,9.64 1.69,2.57 4.36,3.85 8.04,3.85zm0.23 -33.34c4.67,0 8.61,1.56 11.84,4.67 3.22,3.1 4.84,7.69 4.84,13.72 0,5.84 -1.42,10.66 -4.26,14.47 -2.85,3.81 -7.25,5.71 -13.23,5.71 -4.98,0 -8.93,-1.69 -11.86,-5.06 -2.93,-3.37 -4.4,-7.89 -4.4,-13.57 0,-6.08 1.55,-10.93 4.63,-14.54 3.09,-3.6 7.23,-5.41 12.44,-5.41zm39.19 33.18c2.84,0 5.2,-1.2 7.08,-3.58 1.88,-2.38 2.82,-5.93 2.82,-10.66 0,-2.89 -0.42,-5.37 -1.25,-7.43 -1.58,-3.99 -4.47,-5.99 -8.65,-5.99 -4.21,0 -7.1,2.11 -8.66,6.32 -0.83,2.25 -1.25,5.11 -1.25,8.58 0,2.79 0.42,5.17 1.25,7.13 1.58,3.74 4.47,5.62 8.66,5.62zm-15.75 -31.96l5.91 0 0 4.8c1.22,-1.65 2.55,-2.92 3.99,-3.82 2.05,-1.35 4.47,-2.03 7.24,-2.03 4.11,0 7.58,1.57 10.44,4.72 2.86,3.14 4.29,7.63 4.29,13.46 0,7.9 -2.06,13.53 -6.19,16.91 -2.61,2.14 -5.65,3.21 -9.13,3.21 -2.72,0 -5.01,-0.59 -6.86,-1.79 -1.08,-0.67 -2.3,-1.83 -3.62,-3.48l0 18.5 -6.08 0 0 -50.48zm54.05 -0.98c2.57,0 5.07,0.6 7.48,1.81 2.41,1.2 4.25,2.76 5.5,4.67 1.22,1.83 2.03,3.96 2.43,6.39 0.37,1.68 0.54,4.33 0.54,7.99l-26.54 0c0.12,3.67 0.98,6.61 2.61,8.84 1.63,2.21 4.13,3.32 7.53,3.32 3.19,0 5.71,-1.05 7.61,-3.14 1.08,-1.22 1.86,-2.63 2.31,-4.23l5.98 0c-0.15,1.33 -0.68,2.81 -1.57,4.45 -0.89,1.63 -1.89,2.96 -2.99,4 -1.85,1.8 -4.14,3.02 -6.87,3.65 -1.47,0.37 -3.13,0.54 -4.97,0.54 -4.5,0 -8.32,-1.64 -11.46,-4.92 -3.13,-3.28 -4.7,-7.87 -4.7,-13.78 0,-5.82 1.58,-10.54 4.73,-14.16 3.16,-3.63 7.28,-5.45 12.37,-5.45zm9.71 16.03c-0.24,-2.64 -0.82,-4.74 -1.72,-6.32 -1.67,-2.93 -4.45,-4.4 -8.35,-4.4 -2.79,0 -5.14,1 -7.03,3.02 -1.89,2.02 -2.9,4.58 -3.01,7.7l20.11 0zm17.58 3.31c0,3.88 0.82,7.12 2.47,9.74 1.64,2.61 4.28,3.91 7.91,3.91 2.81,0 5.14,-1.21 6.95,-3.63 1.81,-2.42 2.72,-5.89 2.72,-10.42 0,-4.58 -0.94,-7.96 -2.81,-10.17 -1.87,-2.19 -4.18,-3.29 -6.93,-3.29 -3.06,0 -5.55,1.17 -7.46,3.51 -1.9,2.34 -2.85,5.79 -2.85,10.35zm9.16 -19.17c2.77,0 5.09,0.57 6.96,1.75 1.09,0.68 2.31,1.86 3.69,3.55l0 -18.29 5.84 0 0 49.83 -5.47 0 0 -5.04c-1.42,2.24 -3.11,3.84 -5.04,4.84 -1.94,0.99 -4.15,1.49 -6.66,1.49 -4.04,0 -7.52,-1.7 -10.48,-5.09 -2.95,-3.39 -4.43,-7.9 -4.43,-13.54 0,-5.27 1.35,-9.84 4.04,-13.71 2.7,-3.86 6.54,-5.79 11.55,-5.79zm26.95 29.47l7.06 0 0 7.37 -7.06 0 0 -7.37z"/>
    </g>
   </g>
   <g>
    <polygon class="fil6 str0" points="143.33,253.01 1078.11,253.01 1142.67,317.57 1142.67,631.74 1078.11,696.3 143.33,696.3 78.76,631.74 78.76,317.57 "/>
    <path class="fil5" d="M149.27 330.57l8.84 0 0 26.93c2.1,-2.65 3.98,-4.51 5.66,-5.6 2.85,-1.86 6.41,-2.8 10.67,-2.8 7.63,0 12.8,2.67 15.54,8.02 1.46,2.91 2.2,6.96 2.2,12.13l0 33.78 -9.09 0 0 -33.19c0,-3.86 -0.49,-6.7 -1.48,-8.49 -1.59,-2.89 -4.61,-4.33 -9.05,-4.33 -3.66,0 -7,1.26 -9.97,3.78 -2.99,2.53 -4.48,7.3 -4.48,14.31l0 27.92 -8.84 0 0 -72.46zm56 20.05l8.99 0 0 52.4 -8.99 0 0 -52.4zm0 -19.82l8.99 0 0 10.03 -8.99 0 0 -10.03zm50.34 -0.24l8.84 0 0 26.93c2.1,-2.65 3.98,-4.51 5.66,-5.6 2.85,-1.86 6.41,-2.8 10.67,-2.8 7.63,0 12.8,2.67 15.54,8.02 1.46,2.91 2.2,6.96 2.2,12.13l0 33.78 -9.09 0 0 -33.19c0,-3.86 -0.49,-6.7 -1.48,-8.49 -1.59,-2.89 -4.61,-4.33 -9.05,-4.33 -3.66,0 -7,1.26 -9.97,3.78 -2.99,2.53 -4.48,7.3 -4.48,14.31l0 27.92 -8.84 0 0 -72.46zm77.91 18.63c3.74,0 7.37,0.87 10.88,2.63 3.51,1.74 6.17,4.01 8,6.8 1.78,2.67 2.95,5.76 3.54,9.3 0.54,2.43 0.79,6.29 0.79,11.61l-38.59 0c0.17,5.34 1.42,9.61 3.79,12.85 2.37,3.22 6.01,4.83 10.96,4.83 4.63,0 8.31,-1.53 11.06,-4.56 1.58,-1.78 2.7,-3.83 3.36,-6.14l8.69 0c-0.22,1.93 -0.99,4.08 -2.28,6.46 -1.29,2.37 -2.75,4.31 -4.35,5.82 -2.69,2.62 -6.02,4.4 -9.98,5.3 -2.13,0.54 -4.55,0.79 -7.23,0.79 -6.54,0 -12.1,-2.38 -16.66,-7.15 -4.55,-4.77 -6.83,-11.44 -6.83,-20.04 0,-8.46 2.3,-15.32 6.88,-20.59 4.6,-5.28 10.59,-7.92 17.99,-7.92zm14.11 23.31c-0.35,-3.84 -1.19,-6.9 -2.5,-9.2 -2.43,-4.26 -6.48,-6.39 -12.15,-6.39 -4.06,0 -7.47,1.46 -10.22,4.4 -2.75,2.93 -4.21,6.66 -4.38,11.19l29.25 0zm20.2 -22.13l8.41 0 0 9.09c0.69,-1.76 2.38,-3.93 5.06,-6.46 2.69,-2.53 5.79,-3.81 9.3,-3.81 0.17,0 0.44,0.02 0.84,0.05 0.39,0.04 1.06,0.1 2.01,0.2l0 9.33c-0.54,-0.1 -1.01,-0.15 -1.46,-0.18 -0.44,-0.04 -0.92,-0.05 -1.45,-0.05 -4.46,0 -7.89,1.43 -10.27,4.3 -2.4,2.87 -3.59,6.18 -3.59,9.9l0 30.29 -8.86 0 0 -52.65zm55.21 -1.18c3.74,0 7.37,0.87 10.88,2.63 3.51,1.74 6.17,4.01 8,6.8 1.78,2.67 2.95,5.76 3.54,9.3 0.54,2.43 0.79,6.29 0.79,11.61l-38.59 0c0.17,5.34 1.42,9.61 3.79,12.85 2.37,3.22 6.01,4.83 10.96,4.83 4.63,0 8.31,-1.53 11.06,-4.56 1.58,-1.78 2.7,-3.83 3.36,-6.14l8.69 0c-0.22,1.93 -0.99,4.08 -2.28,6.46 -1.29,2.37 -2.75,4.31 -4.35,5.82 -2.69,2.62 -6.02,4.4 -9.98,5.3 -2.13,0.54 -4.55,0.79 -7.23,0.79 -6.54,0 -12.1,-2.38 -16.66,-7.15 -4.55,-4.77 -6.83,-11.44 -6.83,-20.04 0,-8.46 2.3,-15.32 6.88,-20.59 4.6,-5.28 10.59,-7.92 17.99,-7.92zm14.11 23.31c-0.35,-3.84 -1.19,-6.9 -2.5,-9.2 -2.43,-4.26 -6.48,-6.39 -12.15,-6.39 -4.06,0 -7.47,1.46 -10.22,4.4 -2.75,2.93 -4.21,6.66 -4.38,11.19l29.25 0zm80.83 -22.13l9.78 0c-1.26,3.37 -4.03,11.07 -8.31,23.1 -3.22,9.05 -5.91,16.43 -8.07,22.13 -5.12,13.43 -8.71,21.63 -10.81,24.57 -2.1,2.95 -5.7,4.43 -10.82,4.43 -1.24,0 -2.2,-0.05 -2.87,-0.15 -0.67,-0.1 -1.51,-0.27 -2.48,-0.54l0 -8.06c1.54,0.42 2.65,0.69 3.34,0.79 0.69,0.08 1.29,0.13 1.81,0.13 1.65,0 2.85,-0.27 3.63,-0.8 0.77,-0.54 1.41,-1.21 1.93,-2 0.17,-0.25 0.76,-1.59 1.78,-4.03 1.01,-2.42 1.74,-4.23 2.21,-5.4l-19.47 -54.18 10.02 0 14.11 42.87 14.21 -42.87zm38.34 46.95c5.86,0 9.88,-2.21 12.06,-6.66 2.18,-4.43 3.27,-9.38 3.27,-14.82 0,-4.92 -0.79,-8.91 -2.37,-12 -2.48,-4.85 -6.78,-7.28 -12.87,-7.28 -5.42,0 -9.35,2.06 -11.8,6.21 -2.47,4.13 -3.69,9.11 -3.69,14.93 0,5.6 1.22,10.29 3.69,14.01 2.45,3.74 6.34,5.6 11.7,5.6zm0.34 -48.48c6.8,0 12.52,2.26 17.22,6.8 4.68,4.51 7.03,11.18 7.03,19.95 0,8.49 -2.06,15.5 -6.19,21.04 -4.14,5.54 -10.54,8.31 -19.23,8.31 -7.25,0 -12.99,-2.45 -17.25,-7.35 -4.26,-4.9 -6.39,-11.48 -6.39,-19.73 0,-8.84 2.25,-15.89 6.73,-21.14 4.5,-5.24 10.52,-7.87 18.09,-7.87zm43.61 1.53l0 34.95c0,2.69 0.42,4.88 1.28,6.6 1.58,3.14 4.51,4.72 8.81,4.72 6.16,0 10.35,-2.75 12.58,-8.26 1.21,-2.95 1.81,-7 1.81,-12.15l0 -25.86 8.84 0 0 52.65 -8.35 0 0.1 -7.77c-1.14,2 -2.57,3.69 -4.28,5.07 -3.37,2.75 -7.47,4.13 -12.28,4.13 -7.5,0 -12.62,-2.5 -15.34,-7.52 -1.48,-2.69 -2.21,-6.28 -2.21,-10.77l0 -35.79 9.05 0zm95.43 -1.53c5.92,0 10.76,1.44 14.47,4.33 3.73,2.89 5.96,7.85 6.71,14.9l-8.59 0c-0.54,-3.24 -1.73,-5.94 -3.59,-8.09 -1.88,-2.15 -4.86,-3.22 -8.99,-3.22 -5.64,0 -9.67,2.75 -12.1,8.26 -1.58,3.57 -2.36,7.99 -2.36,13.22 0,5.28 1.12,9.73 3.35,13.32 2.21,3.61 5.72,5.42 10.52,5.42 3.66,0 6.58,-1.13 8.73,-3.37 2.13,-2.25 3.63,-5.32 4.45,-9.21l8.59 0c-0.97,6.98 -3.44,12.08 -7.37,15.3 -3.93,3.24 -8.96,4.85 -15.09,4.85 -6.9,0 -12.38,-2.52 -16.48,-7.55 -4.1,-5.03 -6.14,-11.31 -6.14,-18.84 0,-9.25 2.25,-16.44 6.73,-21.6 4.5,-5.14 10.22,-7.72 17.16,-7.72zm36.82 40.17c0,2.55 0.94,4.56 2.8,6.04 1.86,1.48 4.08,2.21 6.64,2.21 3.11,0 6.12,-0.72 9.05,-2.16 4.92,-2.39 7.37,-6.31 7.37,-11.75l0 -7.13c-1.07,0.69 -2.47,1.28 -4.18,1.73 -1.71,0.46 -3.37,0.79 -5.02,0.97l-5.35 0.69c-3.22,0.44 -5.62,1.11 -7.23,2.03 -2.72,1.53 -4.08,3.99 -4.08,7.37zm21.43 -17.89c2.03,-0.27 3.41,-1.13 4.1,-2.57 0.38,-0.79 0.59,-1.91 0.59,-3.39 0,-3.02 -1.07,-5.2 -3.22,-6.56 -2.15,-1.36 -5.22,-2.05 -9.23,-2.05 -4.62,0 -7.89,1.26 -9.82,3.74 -1.09,1.38 -1.79,3.42 -2.11,6.14l-8.27 0c0.17,-6.48 2.28,-10.99 6.33,-13.54 4.04,-2.53 8.74,-3.81 14.08,-3.81 6.19,0 11.23,1.17 15.1,3.54 3.83,2.37 5.74,6.02 5.74,11.01l0 30.34c0,0.92 0.2,1.66 0.57,2.21 0.38,0.56 1.18,0.84 2.38,0.84 0.4,0 0.84,-0.03 1.33,-0.08 0.5,-0.05 1.02,-0.12 1.58,-0.22l0 6.54c-1.38,0.39 -2.43,0.64 -3.14,0.74 -0.72,0.08 -1.71,0.13 -2.95,0.13 -3.05,0 -5.27,-1.07 -6.64,-3.24 -0.72,-1.14 -1.23,-2.77 -1.53,-4.86 -1.79,2.37 -4.38,4.41 -7.75,6.14 -3.39,1.75 -7.1,2.6 -11.17,2.6 -4.88,0 -8.86,-1.48 -11.97,-4.45 -3.09,-2.95 -4.65,-6.68 -4.65,-11.12 0,-4.88 1.53,-8.67 4.58,-11.36 3.03,-2.69 7.05,-4.35 12,-4.97l14.09 -1.76zm27.79 -20.76l8.41 0 0 7.48c2.48,-3.09 5.12,-5.3 7.9,-6.64 2.79,-1.34 5.89,-2.01 9.3,-2.01 7.47,0 12.52,2.6 15.13,7.82 1.44,2.85 2.17,6.93 2.17,12.23l0 33.78 -8.99 0 0 -33.19c0,-3.2 -0.47,-5.79 -1.43,-7.75 -1.58,-3.29 -4.41,-4.92 -8.56,-4.92 -2.1,0 -3.81,0.2 -5.15,0.64 -2.43,0.72 -4.56,2.17 -6.39,4.31 -1.48,1.75 -2.43,3.54 -2.87,5.39 -0.45,1.86 -0.67,4.5 -0.67,7.93l0 27.59 -8.84 0 0 -52.65zm86.18 -8.01c0.12,-3.67 0.76,-6.36 1.91,-8.07 2.07,-3 6.04,-4.51 11.95,-4.51 0.56,0 1.13,0.02 1.71,0.05 0.58,0.04 1.26,0.08 2.01,0.14l0 8.07c-0.9,-0.07 -1.58,-0.1 -1.98,-0.12 -0.42,-0.02 -0.81,-0.04 -1.16,-0.04 -2.68,0 -4.29,0.71 -4.82,2.1 -0.52,1.39 -0.79,4.93 -0.79,10.64l8.74 0 0 6.98 -8.84 0 0 45.42 -8.74 0 0 -45.42 -7.33 0 0 -6.98 7.33 0 0 -8.26zm26.09 -1.53l0 -10.03 8.86 0 0 10.03 -8.86 0zm0 9.78l8.86 0 0 52.4 -8.86 0 0 -52.4zm22.26 -19.82l8.86 0 0 72.22 -8.86 0 0 -72.22zm56.89 58.21c0,2.55 0.94,4.56 2.8,6.04 1.86,1.48 4.08,2.21 6.64,2.21 3.11,0 6.12,-0.72 9.05,-2.16 4.92,-2.39 7.37,-6.31 7.37,-11.75l0 -7.13c-1.07,0.69 -2.47,1.28 -4.18,1.73 -1.71,0.46 -3.37,0.79 -5.02,0.97l-5.35 0.69c-3.22,0.44 -5.62,1.11 -7.23,2.03 -2.72,1.53 -4.08,3.99 -4.08,7.37zm21.43 -17.89c2.03,-0.27 3.41,-1.13 4.1,-2.57 0.38,-0.79 0.59,-1.91 0.59,-3.39 0,-3.02 -1.07,-5.2 -3.22,-6.56 -2.15,-1.36 -5.22,-2.05 -9.23,-2.05 -4.62,0 -7.89,1.26 -9.82,3.74 -1.09,1.38 -1.79,3.42 -2.11,6.14l-8.27 0c0.17,-6.48 2.28,-10.99 6.33,-13.54 4.04,-2.53 8.74,-3.81 14.08,-3.81 6.19,0 11.23,1.17 15.1,3.54 3.83,2.37 5.74,6.02 5.74,11.01l0 30.34c0,0.92 0.2,1.66 0.57,2.21 0.38,0.56 1.18,0.84 2.38,0.84 0.4,0 0.84,-0.03 1.33,-0.08 0.5,-0.05 1.02,-0.12 1.58,-0.22l0 6.54c-1.38,0.39 -2.43,0.64 -3.14,0.74 -0.72,0.08 -1.71,0.13 -2.95,0.13 -3.05,0 -5.27,-1.07 -6.64,-3.24 -0.72,-1.14 -1.23,-2.77 -1.53,-4.86 -1.79,2.37 -4.38,4.41 -7.75,6.14 -3.39,1.75 -7.1,2.6 -11.17,2.6 -4.88,0 -8.86,-1.48 -11.97,-4.45 -3.09,-2.95 -4.65,-6.68 -4.65,-11.12 0,-4.88 1.53,-8.67 4.58,-11.36 3.03,-2.69 7.05,-4.35 12,-4.97l14.09 -1.76zm33.04 15.39c0.27,2.94 1,5.2 2.21,6.78 2.23,2.85 6.09,4.28 11.6,4.28 3.29,0 6.17,-0.72 8.66,-2.15 2.5,-1.43 3.74,-3.62 3.74,-6.61 0,-2.25 -1.01,-3.98 -3.01,-5.15 -1.28,-0.72 -3.81,-1.56 -7.57,-2.52l-7.03 -1.76c-4.5,-1.12 -7.8,-2.37 -9.93,-3.74 -3.79,-2.38 -5.7,-5.7 -5.7,-9.93 0,-4.98 1.79,-9.01 5.38,-12.08 3.59,-3.09 8.43,-4.63 14.48,-4.63 7.94,0 13.64,2.33 17.15,6.98 2.2,2.95 3.27,6.14 3.21,9.55l-8.35 0c-0.17,-1.99 -0.87,-3.83 -2.11,-5.47 -2.03,-2.31 -5.56,-3.49 -10.57,-3.49 -3.34,0 -5.87,0.65 -7.6,1.93 -1.71,1.28 -2.58,2.95 -2.58,5.05 0,2.3 1.14,4.14 3.41,5.52 1.31,0.81 3.24,1.53 5.79,2.15l5.86 1.42c6.36,1.55 10.62,3.04 12.79,4.48 3.44,2.27 5.15,5.82 5.15,10.67 0,4.68 -1.78,8.73 -5.34,12.13 -3.56,3.43 -8.96,5.12 -16.24,5.12 -7.83,0 -13.37,-1.78 -16.64,-5.34 -3.25,-3.56 -5,-7.95 -5.24,-13.19l8.51 0zm-879.04 44.74l8.59 0 0 26.19c1.95,-2.52 4.25,-4.45 6.93,-5.77 2.7,-1.33 5.6,-2 8.76,-2 6.56,0 11.86,2.27 15.96,6.76 4.08,4.51 6.11,11.16 6.11,19.93 0,8.33 -2.01,15.24 -6.04,20.74 -4.03,5.52 -9.61,8.27 -16.76,8.27 -3.99,0 -7.37,-0.97 -10.12,-2.9 -1.64,-1.16 -3.41,-2.99 -5.27,-5.5l0 6.73 -8.15 0 0 -72.46zm23 66.32c4.78,0 8.36,-1.9 10.74,-5.71 2.38,-3.81 3.56,-8.81 3.56,-15.05 0,-5.54 -1.18,-10.12 -3.56,-13.76 -2.38,-3.64 -5.88,-5.45 -10.5,-5.45 -4.03,0 -7.55,1.49 -10.59,4.48 -3.04,2.97 -4.55,7.89 -4.55,14.73 0,4.95 0.62,8.98 1.86,12.05 2.33,5.8 6.68,8.71 13.04,8.71zm40.46 -7.87c0,2.55 0.94,4.56 2.8,6.04 1.86,1.48 4.08,2.21 6.64,2.21 3.11,0 6.12,-0.72 9.05,-2.16 4.92,-2.39 7.37,-6.31 7.37,-11.75l0 -7.13c-1.07,0.69 -2.47,1.28 -4.18,1.73 -1.71,0.46 -3.37,0.79 -5.02,0.97l-5.35 0.69c-3.22,0.44 -5.62,1.11 -7.23,2.03 -2.72,1.53 -4.08,3.99 -4.08,7.37zm21.43 -17.89c2.03,-0.27 3.41,-1.13 4.1,-2.57 0.38,-0.79 0.59,-1.91 0.59,-3.39 0,-3.02 -1.07,-5.2 -3.22,-6.56 -2.15,-1.36 -5.22,-2.05 -9.23,-2.05 -4.62,0 -7.89,1.26 -9.82,3.74 -1.09,1.38 -1.79,3.42 -2.11,6.14l-8.27 0c0.17,-6.48 2.28,-10.99 6.33,-13.54 4.04,-2.53 8.74,-3.81 14.08,-3.81 6.19,0 11.23,1.17 15.1,3.54 3.83,2.37 5.74,6.02 5.74,11.01l0 30.34c0,0.92 0.2,1.66 0.57,2.21 0.38,0.56 1.18,0.84 2.38,0.84 0.4,0 0.84,-0.03 1.33,-0.08 0.5,-0.05 1.02,-0.12 1.58,-0.22l0 6.54c-1.38,0.39 -2.43,0.64 -3.14,0.74 -0.72,0.08 -1.71,0.13 -2.95,0.13 -3.05,0 -5.27,-1.07 -6.64,-3.24 -0.72,-1.14 -1.23,-2.77 -1.53,-4.86 -1.79,2.37 -4.38,4.41 -7.75,6.14 -3.39,1.75 -7.1,2.6 -11.17,2.6 -4.88,0 -8.86,-1.48 -11.97,-4.45 -3.09,-2.95 -4.65,-6.68 -4.65,-11.12 0,-4.88 1.53,-8.67 4.58,-11.36 3.03,-2.69 7.05,-4.35 12,-4.97l14.09 -1.76zm33.4 6.19c0,5.64 1.19,10.35 3.59,14.16 2.38,3.79 6.23,5.69 11.5,5.69 4.09,0 7.47,-1.76 10.1,-5.28 2.63,-3.53 3.96,-8.58 3.96,-15.15 0,-6.66 -1.36,-11.58 -4.08,-14.78 -2.72,-3.19 -6.08,-4.78 -10.08,-4.78 -4.45,0 -8.07,1.69 -10.84,5.1 -2.77,3.41 -4.14,8.42 -4.14,15.05zm13.32 -27.87c4.03,0 7.4,0.84 10.12,2.55 1.58,0.99 3.36,2.7 5.37,5.17l0 -26.6 8.49 0 0 72.46 -7.95 0 0 -7.33c-2.06,3.26 -4.51,5.59 -7.33,7.03 -2.82,1.44 -6.04,2.17 -9.68,2.17 -5.87,0 -10.94,-2.47 -15.23,-7.4 -4.3,-4.94 -6.45,-11.5 -6.45,-19.69 0,-7.67 1.97,-14.31 5.88,-19.93 3.93,-5.62 9.51,-8.42 16.8,-8.42zm43.85 39.57c0,2.55 0.94,4.56 2.8,6.04 1.86,1.48 4.08,2.21 6.64,2.21 3.11,0 6.12,-0.72 9.05,-2.16 4.92,-2.39 7.37,-6.31 7.37,-11.75l0 -7.13c-1.07,0.69 -2.47,1.28 -4.18,1.73 -1.71,0.46 -3.37,0.79 -5.02,0.97l-5.35 0.69c-3.22,0.44 -5.62,1.11 -7.23,2.03 -2.72,1.53 -4.08,3.99 -4.08,7.37zm21.43 -17.89c2.03,-0.27 3.41,-1.13 4.1,-2.57 0.38,-0.79 0.59,-1.91 0.59,-3.39 0,-3.02 -1.07,-5.2 -3.22,-6.56 -2.15,-1.36 -5.22,-2.05 -9.23,-2.05 -4.62,0 -7.89,1.26 -9.82,3.74 -1.09,1.38 -1.79,3.42 -2.11,6.14l-8.27 0c0.17,-6.48 2.28,-10.99 6.33,-13.54 4.04,-2.53 8.74,-3.81 14.08,-3.81 6.19,0 11.23,1.17 15.1,3.54 3.83,2.37 5.74,6.02 5.74,11.01l0 30.34c0,0.92 0.2,1.66 0.57,2.21 0.38,0.56 1.18,0.84 2.38,0.84 0.4,0 0.84,-0.03 1.33,-0.08 0.5,-0.05 1.02,-0.12 1.58,-0.22l0 6.54c-1.38,0.39 -2.43,0.64 -3.14,0.74 -0.72,0.08 -1.71,0.13 -2.95,0.13 -3.05,0 -5.27,-1.07 -6.64,-3.24 -0.72,-1.14 -1.23,-2.77 -1.53,-4.86 -1.79,2.37 -4.38,4.41 -7.75,6.14 -3.39,1.75 -7.1,2.6 -11.17,2.6 -4.88,0 -8.86,-1.48 -11.97,-4.45 -3.09,-2.95 -4.65,-6.68 -4.65,-11.12 0,-4.88 1.53,-8.67 4.58,-11.36 3.03,-2.69 7.05,-4.35 12,-4.97l14.09 -1.76zm33.04 15.39c0.27,2.94 1,5.2 2.21,6.78 2.23,2.85 6.09,4.28 11.6,4.28 3.29,0 6.17,-0.72 8.66,-2.15 2.5,-1.43 3.74,-3.62 3.74,-6.61 0,-2.25 -1.01,-3.98 -3.01,-5.15 -1.28,-0.72 -3.81,-1.56 -7.57,-2.52l-7.03 -1.76c-4.5,-1.12 -7.8,-2.37 -9.93,-3.74 -3.79,-2.38 -5.7,-5.7 -5.7,-9.93 0,-4.98 1.79,-9.01 5.38,-12.08 3.59,-3.09 8.43,-4.63 14.48,-4.63 7.94,0 13.64,2.33 17.15,6.98 2.2,2.95 3.27,6.14 3.21,9.55l-8.35 0c-0.17,-1.99 -0.87,-3.83 -2.11,-5.47 -2.03,-2.31 -5.56,-3.49 -10.57,-3.49 -3.34,0 -5.87,0.65 -7.6,1.93 -1.71,1.28 -2.58,2.95 -2.58,5.05 0,2.3 1.14,4.14 3.41,5.52 1.31,0.81 3.24,1.53 5.79,2.15l5.86 1.42c6.36,1.55 10.62,3.04 12.79,4.48 3.44,2.27 5.15,5.82 5.15,10.67 0,4.68 -1.78,8.73 -5.34,12.13 -3.56,3.43 -8.96,5.12 -16.24,5.12 -7.83,0 -13.37,-1.78 -16.64,-5.34 -3.25,-3.56 -5,-7.95 -5.24,-13.19l8.51 0zm50.34 0c0.27,2.94 1,5.2 2.21,6.78 2.23,2.85 6.09,4.28 11.6,4.28 3.29,0 6.17,-0.72 8.66,-2.15 2.5,-1.43 3.74,-3.62 3.74,-6.61 0,-2.25 -1.01,-3.98 -3.01,-5.15 -1.28,-0.72 -3.81,-1.56 -7.57,-2.52l-7.03 -1.76c-4.5,-1.12 -7.8,-2.37 -9.93,-3.74 -3.79,-2.38 -5.7,-5.7 -5.7,-9.93 0,-4.98 1.79,-9.01 5.38,-12.08 3.59,-3.09 8.43,-4.63 14.48,-4.63 7.94,0 13.64,2.33 17.15,6.98 2.2,2.95 3.27,6.14 3.21,9.55l-8.35 0c-0.17,-1.99 -0.87,-3.83 -2.11,-5.47 -2.03,-2.31 -5.56,-3.49 -10.57,-3.49 -3.34,0 -5.87,0.65 -7.6,1.93 -1.71,1.28 -2.58,2.95 -2.58,5.05 0,2.3 1.14,4.14 3.41,5.52 1.31,0.81 3.24,1.53 5.79,2.15l5.86 1.42c6.36,1.55 10.62,3.04 12.79,4.48 3.44,2.27 5.15,5.82 5.15,10.67 0,4.68 -1.78,8.73 -5.34,12.13 -3.56,3.43 -8.96,5.12 -16.24,5.12 -7.83,0 -13.37,-1.78 -16.64,-5.34 -3.25,-3.56 -5,-7.95 -5.24,-13.19l8.51 0zm77.14 -36.14l10.12 41.49 10.29 -41.49 9.93 0 10.32 41.24 10.76 -41.24 8.86 0 -15.29 52.65 -9.2 0 -10.72 -40.76 -10.37 40.76 -9.19 0 -15.19 -52.65 9.68 0zm68.63 0.25l8.99 0 0 52.4 -8.99 0 0 -52.4zm0 -19.82l8.99 0 0 10.03 -8.99 0 0 -10.03zm24.13 4.86l8.95 0 0 14.7 8.41 0 0 7.23 -8.41 0 0 34.37c0,1.83 0.64,3.05 1.88,3.69 0.69,0.35 1.83,0.54 3.44,0.54 0.42,0 0.89,-0.02 1.38,-0.03 0.49,-0.02 1.06,-0.05 1.71,-0.12l0 6.98c-1.01,0.3 -2.06,0.5 -3.17,0.64 -1.09,0.13 -2.28,0.2 -3.56,0.2 -4.13,0 -6.93,-1.06 -8.41,-3.17 -1.48,-2.11 -2.22,-4.86 -2.22,-8.24l0 -34.85 -7.13 0 0 -7.23 7.13 0 0 -14.7zm26.21 -5.1l8.84 0 0 26.93c2.1,-2.65 3.98,-4.51 5.66,-5.6 2.85,-1.86 6.41,-2.8 10.67,-2.8 7.63,0 12.8,2.67 15.54,8.02 1.46,2.91 2.2,6.96 2.2,12.13l0 33.78 -9.09 0 0 -33.19c0,-3.86 -0.49,-6.7 -1.48,-8.49 -1.59,-2.89 -4.61,-4.33 -9.05,-4.33 -3.66,0 -7,1.26 -9.97,3.78 -2.99,2.53 -4.48,7.3 -4.48,14.31l0 27.92 -8.84 0 0 -72.46zm84.2 19.8l8.41 0 0 9.09c0.69,-1.76 2.38,-3.93 5.06,-6.46 2.69,-2.53 5.79,-3.81 9.3,-3.81 0.17,0 0.44,0.02 0.84,0.05 0.39,0.04 1.06,0.1 2.01,0.2l0 9.33c-0.54,-0.1 -1.01,-0.15 -1.46,-0.18 -0.44,-0.04 -0.92,-0.05 -1.45,-0.05 -4.46,0 -7.89,1.43 -10.27,4.3 -2.4,2.87 -3.59,6.18 -3.59,9.9l0 30.29 -8.86 0 0 -52.65zm54.18 46.95c5.86,0 9.88,-2.21 12.06,-6.66 2.18,-4.43 3.27,-9.38 3.27,-14.82 0,-4.92 -0.79,-8.91 -2.37,-12 -2.48,-4.85 -6.78,-7.28 -12.87,-7.28 -5.42,0 -9.35,2.06 -11.8,6.21 -2.47,4.13 -3.69,9.11 -3.69,14.93 0,5.6 1.22,10.29 3.69,14.01 2.45,3.74 6.34,5.6 11.7,5.6zm0.34 -48.48c6.8,0 12.52,2.26 17.22,6.8 4.68,4.51 7.03,11.18 7.03,19.95 0,8.49 -2.06,15.5 -6.19,21.04 -4.14,5.54 -10.54,8.31 -19.23,8.31 -7.25,0 -12.99,-2.45 -17.25,-7.35 -4.26,-4.9 -6.39,-11.48 -6.39,-19.73 0,-8.84 2.25,-15.89 6.73,-21.14 4.5,-5.24 10.52,-7.87 18.09,-7.87zm35 -18.04l8.86 0 0 72.22 -8.86 0 0 -72.22zm28.91 58.21c0,2.55 0.94,4.56 2.8,6.04 1.86,1.48 4.08,2.21 6.64,2.21 3.11,0 6.12,-0.72 9.05,-2.16 4.92,-2.39 7.37,-6.31 7.37,-11.75l0 -7.13c-1.07,0.69 -2.47,1.28 -4.18,1.73 -1.71,0.46 -3.37,0.79 -5.02,0.97l-5.35 0.69c-3.22,0.44 -5.62,1.11 -7.23,2.03 -2.72,1.53 -4.08,3.99 -4.08,7.37zm21.43 -17.89c2.03,-0.27 3.41,-1.13 4.1,-2.57 0.38,-0.79 0.59,-1.91 0.59,-3.39 0,-3.02 -1.07,-5.2 -3.22,-6.56 -2.15,-1.36 -5.22,-2.05 -9.23,-2.05 -4.62,0 -7.89,1.26 -9.82,3.74 -1.09,1.38 -1.79,3.42 -2.11,6.14l-8.27 0c0.17,-6.48 2.28,-10.99 6.33,-13.54 4.04,-2.53 8.74,-3.81 14.08,-3.81 6.19,0 11.23,1.17 15.1,3.54 3.83,2.37 5.74,6.02 5.74,11.01l0 30.34c0,0.92 0.2,1.66 0.57,2.21 0.38,0.56 1.18,0.84 2.38,0.84 0.4,0 0.84,-0.03 1.33,-0.08 0.5,-0.05 1.02,-0.12 1.58,-0.22l0 6.54c-1.38,0.39 -2.43,0.64 -3.14,0.74 -0.72,0.08 -1.71,0.13 -2.95,0.13 -3.05,0 -5.27,-1.07 -6.64,-3.24 -0.72,-1.14 -1.23,-2.77 -1.53,-4.86 -1.79,2.37 -4.38,4.41 -7.75,6.14 -3.39,1.75 -7.1,2.6 -11.17,2.6 -4.88,0 -8.86,-1.48 -11.97,-4.45 -3.09,-2.95 -4.65,-6.68 -4.65,-11.12 0,-4.88 1.53,-8.67 4.58,-11.36 3.03,-2.69 7.05,-4.35 12,-4.97l14.09 -1.76zm27.79 -20.76l8.41 0 0 7.48c2.48,-3.09 5.12,-5.3 7.9,-6.64 2.79,-1.34 5.89,-2.01 9.3,-2.01 7.47,0 12.52,2.6 15.13,7.82 1.44,2.85 2.17,6.93 2.17,12.23l0 33.78 -8.99 0 0 -33.19c0,-3.2 -0.47,-5.79 -1.43,-7.75 -1.58,-3.29 -4.41,-4.92 -8.56,-4.92 -2.1,0 -3.81,0.2 -5.15,0.64 -2.43,0.72 -4.56,2.17 -6.39,4.31 -1.48,1.75 -2.43,3.54 -2.87,5.39 -0.45,1.86 -0.67,4.5 -0.67,7.93l0 27.59 -8.84 0 0 -52.65zm61.6 26.95c0,5.64 1.19,10.35 3.59,14.16 2.38,3.79 6.23,5.69 11.5,5.69 4.09,0 7.47,-1.76 10.1,-5.28 2.63,-3.53 3.96,-8.58 3.96,-15.15 0,-6.66 -1.36,-11.58 -4.08,-14.78 -2.72,-3.19 -6.08,-4.78 -10.08,-4.78 -4.45,0 -8.07,1.69 -10.84,5.1 -2.77,3.41 -4.14,8.42 -4.14,15.05zm13.32 -27.87c4.03,0 7.4,0.84 10.12,2.55 1.58,0.99 3.36,2.7 5.37,5.17l0 -26.6 8.49 0 0 72.46 -7.95 0 0 -7.33c-2.06,3.26 -4.51,5.59 -7.33,7.03 -2.82,1.44 -6.04,2.17 -9.68,2.17 -5.87,0 -10.94,-2.47 -15.23,-7.4 -4.3,-4.94 -6.45,-11.5 -6.45,-19.69 0,-7.67 1.97,-14.31 5.88,-19.93 3.93,-5.62 9.51,-8.42 16.8,-8.42z"/>
   </g>
  </g>
 </g>
</svg>
