<?xml version="1.0" encoding="UTF-8"?>
<!DOCTYPE svg PUBLIC "-//W3C//DTD SVG 1.1//EN" "http://www.w3.org/Graphics/SVG/1.1/DTD/svg11.dtd">
<!-- Creator: CorelDRAW -->
<svg xmlns="http://www.w3.org/2000/svg" xml:space="preserve" width="11.1514mm" height="10.5245mm" version="1.1" style="shape-rendering:geometricPrecision; text-rendering:geometricPrecision; image-rendering:optimizeQuality; fill-rule:evenodd; clip-rule:evenodd"
viewBox="0 0 3196.1 3016.42"
 xmlns:xlink="http://www.w3.org/1999/xlink"
 xmlns:xodm="http://www.corel.com/coreldraw/odm/2003">
 <defs>
  <style type="text/css">
   <![CDATA[
    .str0 {stroke:#2B2B2A;stroke-width:57.32;stroke-miterlimit:22.9256}
    .fil0 {fill:#5C5C5B}
    .fil1 {fill:#434342}
    .fil2 {fill:#F07F1B;fill-rule:nonzero}
   ]]>
  </style>
 </defs>
 <g id="Слой_x0020_1">
  <metadata id="CorelCorpID_0Corel-Layer"/>
  <g id="_105553122950208">
   <path class="fil0 str0" d="M165.34 28.66l2865.41 0c75.18,0 136.68,61.51 136.68,136.68l0 2685.73c0,75.18 -61.51,136.68 -136.68,136.68l-2865.41 0c-75.15,0 -136.68,-61.51 -136.68,-136.68l0 -2685.73c0,-75.18 61.54,-136.68 136.68,-136.68z"/>
   <path class="fil1 str0" d="M416.3 265.26l2363.47 0c75.18,0 136.68,61.51 136.68,136.66l0 2212.57c0,75.15 -61.51,136.68 -136.68,136.68l-2363.47 0c-75.18,0 -136.68,-61.54 -136.68,-136.68l0 -2212.57c0,-75.15 61.51,-136.66 136.68,-136.66z"/>
   <path class="fil1 str0" d="M416.3 265.26l2363.47 0c75.18,0 136.68,61.51 136.68,136.66l0 2212.57c0,75.15 -61.51,136.68 -136.68,136.68l-2363.47 0c-75.18,0 -136.68,-61.54 -136.68,-136.68l0 -2212.57c0,-75.15 61.51,-136.66 136.68,-136.66z"/>
   <path class="fil2" d="M433.04 1619.14c0,65.23 13.76,119.77 41.53,163.85 27.57,43.88 72.02,65.81 132.99,65.81 47.35,0 86.38,-20.38 116.85,-61.13 30.5,-40.78 45.83,-99.22 45.83,-175.32 0,-77.07 -15.73,-133.93 -47.18,-171.02 -31.44,-36.89 -70.28,-55.34 -116.68,-55.34 -51.45,0 -93.38,19.63 -125.39,59.04 -32.04,39.41 -47.95,97.45 -47.95,174.12zm154.14 -322.44c46.57,0 85.61,9.69 117.05,29.49 18.26,11.46 38.84,31.27 62.11,59.79l0 -307.68 98.25 0 0 838.25 -92.03 0 0 -84.84c-23.87,37.66 -52.22,64.66 -84.84,81.34 -32.62,16.71 -69.88,25.05 -112.01,25.05 -67.96,0 -126.57,-28.55 -176.26,-85.61 -49.7,-57.09 -74.55,-132.99 -74.55,-227.71 0,-88.73 22.7,-165.6 67.93,-230.63 45.43,-65.03 110.09,-97.45 194.35,-97.45zm431.55 10.66l97.28 0 0 105.21c7.94,-20.38 27.54,-45.43 58.61,-74.72 31.07,-29.32 66.98,-44.08 107.56,-44.08 1.92,0 5.04,0.2 9.69,0.57 4.47,0.4 12.24,1.18 23.3,2.35l0 107.94c-6.22,-1.18 -11.64,-1.75 -16.88,-2.15 -5.04,-0.37 -10.69,-0.57 -16.71,-0.57 -51.65,0 -91.23,16.51 -118.8,49.7 -27.77,33.19 -41.56,71.42 -41.56,114.53l0 350.41 -102.49 0 0 -609.19zm487.47 0l0 404.38c0,31.07 4.84,56.49 14.76,76.3 18.23,36.31 52.22,54.54 101.92,54.54 71.22,0 119.77,-31.81 145.6,-95.5 13.96,-34.16 20.95,-80.97 20.95,-140.55l0 -299.16 102.32 0 0 609.19 -96.67 0 1.15 -89.88c-13.18,23.1 -29.69,42.7 -49.5,58.61 -39.01,31.84 -86.38,47.78 -142.1,47.78 -86.79,0 -146,-28.92 -177.44,-86.99 -17.08,-31.04 -25.62,-72.6 -25.62,-124.62l0 -414.09 104.64 0zm545.5 0l101.14 0 0 86.58c24.28,-30.09 46.2,-51.82 66.01,-65.4 33.79,-23.1 72.02,-34.77 114.93,-34.77 48.52,0 87.56,12.04 117.05,35.91 16.71,13.59 31.84,33.59 45.63,60.19 22.7,-32.62 49.5,-56.69 80.16,-72.43 30.7,-15.71 65.23,-23.67 103.49,-23.67 81.91,0 137.63,29.52 167.12,88.73 15.94,31.81 23.9,74.72 23.9,128.52l0 405.52 -106.19 0 0 -423.21c0,-40.56 -10.29,-68.33 -30.5,-83.46 -20.38,-15.16 -45.03,-22.93 -74.35,-22.93 -40.18,0 -74.75,13.59 -103.67,40.38 -29.12,27 -43.48,72.02 -43.48,134.94l0 354.28 -104.07 0 0 -397.58c0,-41.36 -5.04,-71.42 -14.93,-90.45 -15.53,-28.35 -44.45,-42.53 -86.99,-42.53 -38.63,0 -73.77,14.96 -105.41,44.85 -31.64,29.89 -47.55,84.26 -47.55,162.68l0 323.04 -102.32 0 0 -609.19z"/>
  </g>
 </g>
</svg>
