<?xml version="1.0" encoding="UTF-8"?>
<!DOCTYPE svg PUBLIC "-//W3C//DTD SVG 1.1//EN" "http://www.w3.org/Graphics/SVG/1.1/DTD/svg11.dtd">
<!-- Creator: CorelDRAW -->
<svg xmlns="http://www.w3.org/2000/svg" xml:space="preserve" width="11.1514mm" height="10.5245mm" version="1.1" style="shape-rendering:geometricPrecision; text-rendering:geometricPrecision; image-rendering:optimizeQuality; fill-rule:evenodd; clip-rule:evenodd"
viewBox="0 0 10975.62 10358.6"
 xmlns:xlink="http://www.w3.org/1999/xlink"
 xmlns:xodm="http://www.corel.com/coreldraw/odm/2003">
 <defs>
  <style type="text/css">
   <![CDATA[
    .str0 {stroke:#2B2B2A;stroke-width:196.85;stroke-miterlimit:22.9256}
    .fil1 {fill:#434342}
    .fil0 {fill:#F07F1B}
    .fil2 {fill:#F07F1B;fill-rule:nonzero}
   ]]>
  </style>
 </defs>
 <g id="Слой_x0020_1">
  <metadata id="CorelCorpID_0Corel-Layer"/>
  <g id="_105553123456640">
   <path class="fil0 str0" d="M567.81 98.42l9840 0c258.17,0 469.38,211.22 469.38,469.38l0 9222.99c0,258.17 -211.22,469.38 -469.38,469.38l-9840 0c-258.07,0 -469.38,-211.22 -469.38,-469.38l0 -9222.99c0,-258.17 211.32,-469.38 469.38,-469.38z"/>
   <path class="fil1 str0" d="M1429.6 910.91l8116.31 0c258.17,0 469.38,211.22 469.38,469.28l0 7598.11c0,258.07 -211.22,469.38 -469.38,469.38l-8116.31 0c-258.17,0 -469.38,-211.32 -469.38,-469.38l0 -7598.11c0,-258.07 211.22,-469.28 469.38,-469.28z"/>
   <path class="fil1 str0" d="M1429.6 910.91l8116.31 0c258.17,0 469.38,211.22 469.38,469.28l0 7598.11c0,258.07 -211.22,469.38 -469.38,469.38l-8116.31 0c-258.17,0 -469.38,-211.32 -469.38,-469.38l0 -7598.11c0,-258.07 211.22,-469.28 469.38,-469.28z"/>
   <path class="fil2" d="M1487.08 5560.25c0,224.01 47.24,411.31 142.62,562.69 94.68,150.69 247.34,225.98 456.69,225.98 162.6,0 296.65,-69.98 401.27,-209.94 104.72,-140.06 157.38,-340.74 157.38,-602.06 0,-264.66 -54.03,-459.93 -162.01,-587.29 -107.97,-126.67 -241.33,-190.06 -400.68,-190.06 -176.67,0 -320.66,67.42 -430.6,202.75 -110.04,135.33 -164.66,334.64 -164.66,597.92zm529.32 -1107.27c159.94,0 293.99,33.27 401.96,101.28 62.7,39.37 133.36,107.38 213.28,205.31l0 -1056.58 337.4 0 0 2878.6 -316.04 0 0 -291.33c-81.99,129.33 -179.33,222.04 -291.33,279.33 -112.01,57.38 -239.96,86.02 -384.64,86.02 -233.36,0 -434.64,-98.03 -605.31,-293.99 -170.67,-196.06 -256,-456.69 -256,-781.98 0,-304.72 77.95,-568.69 233.26,-792.02 156,-223.32 378.05,-334.64 667.41,-334.64zm1481.96 36.61l334.05 0 0 361.31c27.26,-69.98 94.59,-156 201.28,-256.59 106.69,-100.69 230.02,-151.38 369.38,-151.38 6.59,0 17.32,0.69 33.27,1.97 15.35,1.38 42.03,4.04 80.02,8.07l0 370.66c-21.36,-4.04 -39.96,-6 -57.97,-7.38 -17.32,-1.28 -36.71,-1.97 -57.38,-1.97 -177.36,0 -313.28,56.69 -407.97,170.67 -95.37,113.97 -142.71,245.27 -142.71,393.3l0 1203.33 -351.96 0 0 -2091.99zm1673.99 0l0 1388.66c0,106.69 16.63,193.99 50.69,262 62.6,124.7 179.33,187.3 349.99,187.3 244.58,0 411.31,-109.25 499.99,-327.95 47.93,-117.32 71.95,-278.05 71.95,-482.67l0 -1027.35 351.37 0 0 2091.99 -331.98 0 3.94 -308.66c-45.27,79.33 -101.97,146.65 -169.98,201.28 -133.95,109.35 -296.65,164.07 -487.98,164.07 -298.03,0 -501.37,-99.31 -609.34,-298.72 -58.66,-106.59 -87.99,-249.31 -87.99,-427.95l0 -1422.02 359.34 0zm1873.3 0l347.34 0 0 297.34c83.36,-103.34 158.66,-177.95 226.67,-224.6 116.04,-79.33 247.34,-119.39 394.68,-119.39 166.63,0 300.68,41.34 401.96,123.32 57.38,46.65 109.35,115.35 156.69,206.69 77.95,-112.01 169.98,-194.68 275.29,-248.72 105.41,-53.94 224.01,-81.3 355.41,-81.3 281.29,0 472.63,101.38 573.91,304.72 54.72,109.25 82.09,256.59 82.09,441.33l0 1392.6 -364.66 0 0 -1453.32c0,-139.27 -35.33,-234.64 -104.72,-286.61 -69.98,-52.07 -154.62,-78.74 -255.31,-78.74 -137.99,0 -256.69,46.65 -356,138.68 -100,92.72 -149.31,247.34 -149.31,463.38l0 1216.61 -357.38 0 0 -1365.33c0,-142.03 -17.32,-245.27 -51.28,-310.63 -53.35,-97.34 -152.66,-146.06 -298.72,-146.06 -132.68,0 -253.34,51.38 -362,154.03 -108.66,102.66 -163.28,289.37 -163.28,558.65l0 1109.33 -351.37 0 0 -2091.99z"/>
  </g>
 </g>
</svg>
