<?xml version="1.0" encoding="UTF-8"?>
<!DOCTYPE svg PUBLIC "-//W3C//DTD SVG 1.1//EN" "http://www.w3.org/Graphics/SVG/1.1/DTD/svg11.dtd">
<!-- Creator: CorelDRAW -->
<svg xmlns="http://www.w3.org/2000/svg" xml:space="preserve" width="11.1514mm" height="10.5245mm" version="1.1" style="shape-rendering:geometricPrecision; text-rendering:geometricPrecision; image-rendering:optimizeQuality; fill-rule:evenodd; clip-rule:evenodd"
viewBox="0 0 519.27 490.08"
 xmlns:xlink="http://www.w3.org/1999/xlink"
 xmlns:xodm="http://www.corel.com/coreldraw/odm/2003">
 <defs>
  <style type="text/css">
   <![CDATA[
    .str0 {stroke:#2B2B2A;stroke-width:9.31;stroke-miterlimit:22.9256}
    .fil0 {fill:#5C5C5B}
    .fil1 {fill:#434342}
    .fil2 {fill:#F07F1B;fill-rule:nonzero}
   ]]>
  </style>
 </defs>
 <g id="Слой_x0020_1">
  <metadata id="CorelCorpID_0Corel-Layer"/>
  <g id="_105553122872000">
   <path class="fil0 str0" d="M26.86 4.66l465.55 0c12.21,0 22.21,9.99 22.21,22.21l0 436.35c0,12.21 -9.99,22.21 -22.21,22.21l-465.55 0c-12.21,0 -22.21,-9.99 -22.21,-22.21l0 -436.35c0,-12.21 10,-22.21 22.21,-22.21z"/>
   <path class="fil1 str0" d="M67.64 43.1l384 0c12.21,0 22.21,9.99 22.21,22.2l0 359.48c0,12.21 -9.99,22.21 -22.21,22.21l-384 0c-12.21,0 -22.21,-10 -22.21,-22.21l0 -359.48c0,-12.21 9.99,-22.2 22.21,-22.2z"/>
   <path class="fil1 str0" d="M67.64 43.1l384 0c12.21,0 22.21,9.99 22.21,22.2l0 359.48c0,12.21 -9.99,22.21 -22.21,22.21l-384 0c-12.21,0 -22.21,-10 -22.21,-22.21l0 -359.48c0,-12.21 9.99,-22.2 22.21,-22.2z"/>
   <path class="fil2" d="M80.61 214.29l9.88 0 0 8.46c2.37,-2.94 4.51,-5.06 6.44,-6.39 3.3,-2.26 7.04,-3.39 11.23,-3.39 4.74,0 8.55,1.18 11.43,3.51 1.63,1.33 3.11,3.28 4.46,5.88 2.22,-3.19 4.83,-5.54 7.83,-7.07 2.99,-1.54 6.37,-2.31 10.1,-2.31 8,0 13.44,2.88 16.32,8.67 1.56,3.11 2.33,7.3 2.33,12.55l0 39.61 -10.37 0 0 -41.33c0,-3.96 -1.01,-6.67 -2.98,-8.15 -1.99,-1.48 -4.4,-2.24 -7.26,-2.24 -3.92,0 -7.3,1.33 -10.12,3.94 -2.85,2.64 -4.25,7.04 -4.25,13.18l0 34.6 -10.16 0 0 -38.83c0,-4.04 -0.49,-6.98 -1.46,-8.83 -1.52,-2.77 -4.34,-4.15 -8.49,-4.15 -3.77,0 -7.2,1.46 -10.3,4.38 -3.09,2.92 -4.64,8.23 -4.64,15.89l0 31.55 -9.99 0 0 -59.5zm119.52 -1.33c4.23,0 8.33,0.99 12.29,2.98 3.96,1.97 6.98,4.53 9.04,7.68 2.01,3.02 3.34,6.51 4,10.51 0.61,2.75 0.89,7.11 0.89,13.12l-43.6 0c0.19,6.03 1.61,10.86 4.28,14.52 2.67,3.64 6.78,5.46 12.38,5.46 5.23,0 9.38,-1.72 12.49,-5.15 1.78,-2.01 3.05,-4.33 3.79,-6.94l9.82 0c-0.25,2.18 -1.12,4.61 -2.58,7.3 -1.46,2.67 -3.11,4.87 -4.91,6.58 -3.03,2.96 -6.81,4.97 -11.28,5.99 -2.41,0.61 -5.14,0.89 -8.17,0.89 -7.39,0 -13.67,-2.69 -18.83,-8.08 -5.14,-5.38 -7.72,-12.93 -7.72,-22.64 0,-9.56 2.6,-17.31 7.78,-23.26 5.19,-5.97 11.96,-8.95 20.32,-8.95zm15.95 26.34c-0.4,-4.34 -1.35,-7.8 -2.83,-10.39 -2.75,-4.81 -7.32,-7.22 -13.73,-7.22 -4.59,0 -8.44,1.65 -11.55,4.97 -3.11,3.32 -4.76,7.53 -4.95,12.65l33.05 0zm22.83 -47.12l10.01 0 0 81.6 -10.01 0 0 -81.6zm48.61 75.16c6.62,0 11.17,-2.51 13.63,-7.53 2.47,-5.01 3.7,-10.6 3.7,-16.74 0,-5.56 -0.89,-10.07 -2.67,-13.56 -2.8,-5.48 -7.66,-8.23 -14.54,-8.23 -6.12,0 -10.56,2.33 -13.33,7.01 -2.79,4.67 -4.17,10.3 -4.17,16.88 0,6.33 1.38,11.62 4.17,15.83 2.77,4.23 7.17,6.33 13.22,6.33zm0.38 -54.78c7.68,0 14.15,2.56 19.46,7.68 5.29,5.1 7.94,12.62 7.94,22.54 0,9.59 -2.33,17.52 -6.99,23.78 -4.68,6.25 -11.91,9.38 -21.73,9.38 -8.19,0 -14.67,-2.77 -19.49,-8.3 -4.81,-5.54 -7.23,-12.97 -7.23,-22.3 0,-9.99 2.54,-17.95 7.6,-23.89 5.08,-5.91 11.89,-8.89 20.44,-8.89zm45.62 32.17c0,6.37 1.35,11.7 4.06,16 2.69,4.28 7.04,6.43 12.99,6.43 4.63,0 8.44,-1.99 11.41,-5.97 2.98,-3.98 4.47,-9.69 4.47,-17.12 0,-7.53 -1.54,-13.08 -4.61,-16.7 -3.07,-3.6 -6.86,-5.41 -11.39,-5.41 -5.02,0 -9.12,1.91 -12.25,5.76 -3.12,3.85 -4.68,9.52 -4.68,17.01zm15.05 -31.49c4.55,0 8.36,0.95 11.43,2.88 1.78,1.12 3.79,3.05 6.07,5.84l0 -30.05 9.59 0 0 81.87 -8.99 0 0 -8.28c-2.33,3.68 -5.1,6.31 -8.28,7.94 -3.19,1.63 -6.83,2.44 -10.94,2.44 -6.64,0 -12.36,-2.79 -17.22,-8.36 -4.85,-5.57 -7.28,-12.99 -7.28,-22.24 0,-8.66 2.22,-16.17 6.64,-22.52 4.44,-6.35 10.75,-9.52 18.98,-9.52zm79.04 1.04l11.05 0c-1.42,3.81 -4.55,12.51 -9.38,26.11 -3.64,10.22 -6.68,18.56 -9.12,25.01 -5.78,15.17 -9.84,24.44 -12.21,27.76 -2.37,3.34 -6.44,5.01 -12.23,5.01 -1.41,0 -2.49,-0.06 -3.25,-0.17 -0.75,-0.12 -1.7,-0.31 -2.8,-0.61l0 -9.1c1.74,0.47 2.99,0.78 3.77,0.89 0.78,0.1 1.46,0.15 2.05,0.15 1.86,0 3.22,-0.3 4.09,-0.91 0.88,-0.61 1.59,-1.36 2.18,-2.25 0.19,-0.28 0.85,-1.8 2.01,-4.55 1.14,-2.73 1.97,-4.78 2.51,-6.1l-22 -61.22 11.32 0 15.95 48.44 16.06 -48.44z"/>
  </g>
 </g>
</svg>
