<?xml version="1.0" encoding="UTF-8"?>
<!DOCTYPE svg PUBLIC "-//W3C//DTD SVG 1.1//EN" "http://www.w3.org/Graphics/SVG/1.1/DTD/svg11.dtd">
<!-- Creator: CorelDRAW -->
<svg xmlns="http://www.w3.org/2000/svg" xml:space="preserve" width="11.1514mm" height="10.5245mm" version="1.1" style="shape-rendering:geometricPrecision; text-rendering:geometricPrecision; image-rendering:optimizeQuality; fill-rule:evenodd; clip-rule:evenodd"
viewBox="0 0 271.81 256.53"
 xmlns:xlink="http://www.w3.org/1999/xlink"
 xmlns:xodm="http://www.corel.com/coreldraw/odm/2003">
 <defs>
  <style type="text/css">
   <![CDATA[
    .str0 {stroke:#2B2B2A;stroke-width:4.87;stroke-miterlimit:22.9256}
    .fil1 {fill:#434342}
    .fil0 {fill:#F07F1B}
    .fil2 {fill:#F07F1B;fill-rule:nonzero}
   ]]>
  </style>
 </defs>
 <g id="Слой_x0020_1">
  <metadata id="CorelCorpID_0Corel-Layer"/>
  <g id="_105553124757216">
   <path class="fil0 str0" d="M14.06 2.44l243.69 0c6.39,0 11.62,5.23 11.62,11.62l0 228.41c0,6.39 -5.23,11.62 -11.62,11.62l-243.69 0c-6.39,0 -11.62,-5.23 -11.62,-11.62l0 -228.41c0,-6.39 5.23,-11.62 11.62,-11.62z"/>
   <path class="fil1 str0" d="M35.4 22.56l201 0c6.39,0 11.62,5.23 11.62,11.62l0 188.17c0,6.39 -5.23,11.62 -11.62,11.62l-201 0c-6.39,0 -11.62,-5.23 -11.62,-11.62l0 -188.17c0,-6.39 5.23,-11.62 11.62,-11.62z"/>
   <path class="fil1 str0" d="M35.4 22.56l201 0c6.39,0 11.62,5.23 11.62,11.62l0 188.17c0,6.39 -5.23,11.62 -11.62,11.62l-201 0c-6.39,0 -11.62,-5.23 -11.62,-11.62l0 -188.17c0,-6.39 5.23,-11.62 11.62,-11.62z"/>
   <path class="fil2" d="M41.34 142.57c0.2,2.24 0.77,3.98 1.69,5.18 1.71,2.18 4.66,3.27 8.86,3.27 2.51,0 4.72,-0.55 6.62,-1.64 1.91,-1.09 2.86,-2.77 2.86,-5.05 0,-1.72 -0.77,-3.04 -2.3,-3.94 -0.97,-0.55 -2.91,-1.19 -5.78,-1.93l-5.37 -1.35c-3.44,-0.86 -5.96,-1.81 -7.59,-2.86 -2.9,-1.82 -4.36,-4.36 -4.36,-7.59 0,-3.81 1.37,-6.89 4.12,-9.23 2.74,-2.36 6.44,-3.54 11.07,-3.54 6.06,0 10.43,1.78 13.11,5.34 1.68,2.26 2.5,4.69 2.45,7.3l-6.39 0c-0.13,-1.53 -0.67,-2.92 -1.62,-4.18 -1.55,-1.77 -4.24,-2.67 -8.08,-2.67 -2.55,0 -4.49,0.5 -5.81,1.47 -1.31,0.97 -1.98,2.26 -1.98,3.86 0,1.76 0.87,3.17 2.6,4.22 1,0.62 2.48,1.17 4.42,1.64l4.48 1.09c4.86,1.18 8.12,2.32 9.77,3.42 2.63,1.73 3.94,4.45 3.94,8.16 0,3.58 -1.36,6.67 -4.08,9.27 -2.72,2.62 -6.85,3.91 -12.41,3.91 -5.99,0 -10.22,-1.36 -12.72,-4.08 -2.49,-2.72 -3.82,-6.08 -4,-10.08l6.5 0zm50.42 8.26c4.48,0 7.55,-1.69 9.22,-5.09 1.67,-3.39 2.5,-7.17 2.5,-11.32 0,-3.76 -0.6,-6.81 -1.81,-9.17 -1.9,-3.7 -5.18,-5.56 -9.84,-5.56 -4.14,0 -7.14,1.58 -9.02,4.74 -1.88,3.16 -2.82,6.96 -2.82,11.41 0,4.28 0.94,7.86 2.82,10.71 1.87,2.86 4.85,4.28 8.94,4.28zm0.26 -37.05c5.19,0 9.57,1.73 13.16,5.19 3.58,3.45 5.37,8.54 5.37,15.25 0,6.49 -1.58,11.85 -4.73,16.08 -3.17,4.23 -8.05,6.35 -14.7,6.35 -5.54,0 -9.93,-1.87 -13.18,-5.62 -3.26,-3.74 -4.89,-8.77 -4.89,-15.08 0,-6.76 1.72,-12.14 5.14,-16.16 3.44,-4 8.04,-6.01 13.82,-6.01zm33.33 1.17l0 26.71c0,2.05 0.32,3.73 0.97,5.04 1.2,2.4 3.45,3.6 6.73,3.6 4.71,0 7.91,-2.1 9.62,-6.31 0.92,-2.26 1.38,-5.35 1.38,-9.28l0 -19.76 6.76 0 0 40.24 -6.39 0 0.08 -5.94c-0.87,1.53 -1.96,2.82 -3.27,3.87 -2.58,2.1 -5.71,3.15 -9.39,3.15 -5.73,0 -9.64,-1.91 -11.72,-5.75 -1.13,-2.05 -1.69,-4.79 -1.69,-8.23l0 -27.36 6.91 0zm36.04 0l6.43 0 0 5.72c1.9,-2.36 3.91,-4.05 6.04,-5.08 2.13,-1.03 4.5,-1.54 7.11,-1.54 5.71,0 9.56,1.99 11.57,5.98 1.1,2.18 1.66,5.3 1.66,9.35l0 25.82 -6.87 0 0 -25.37c0,-2.45 -0.36,-4.42 -1.09,-5.92 -1.21,-2.51 -3.37,-3.76 -6.54,-3.76 -1.6,0 -2.91,0.15 -3.94,0.49 -1.86,0.55 -3.49,1.66 -4.88,3.3 -1.13,1.33 -1.86,2.71 -2.19,4.12 -0.35,1.42 -0.51,3.44 -0.51,6.07l0 21.08 -6.76 0 0 -40.24zm47.08 20.6c0,4.31 0.91,7.91 2.74,10.82 1.82,2.9 4.76,4.35 8.78,4.35 3.13,0 5.71,-1.35 7.72,-4.04 2.01,-2.69 3.03,-6.55 3.03,-11.58 0,-5.09 -1.04,-8.85 -3.12,-11.3 -2.08,-2.44 -4.64,-3.66 -7.7,-3.66 -3.4,0 -6.17,1.3 -8.28,3.9 -2.12,2.6 -3.17,6.44 -3.17,11.5zm10.18 -21.3c3.08,0 5.65,0.64 7.73,1.95 1.21,0.76 2.56,2.06 4.1,3.95l0 -20.33 6.49 0 0 55.37 -6.08 0 0 -5.6c-1.58,2.49 -3.45,4.27 -5.6,5.37 -2.15,1.1 -4.62,1.66 -7.4,1.66 -4.49,0 -8.36,-1.88 -11.64,-5.65 -3.28,-3.77 -4.92,-8.78 -4.92,-15.04 0,-5.86 1.5,-10.94 4.49,-15.23 3,-4.29 7.27,-6.44 12.84,-6.44z"/>
  </g>
 </g>
</svg>
