<?xml version="1.0" encoding="UTF-8"?>
<!DOCTYPE svg PUBLIC "-//W3C//DTD SVG 1.1//EN" "http://www.w3.org/Graphics/SVG/1.1/DTD/svg11.dtd">
<!-- Creator: CorelDRAW -->
<svg xmlns="http://www.w3.org/2000/svg" xml:space="preserve" width="11.1514mm" height="10.5245mm" version="1.1" style="shape-rendering:geometricPrecision; text-rendering:geometricPrecision; image-rendering:optimizeQuality; fill-rule:evenodd; clip-rule:evenodd"
viewBox="0 0 508.62 480.03"
 xmlns:xlink="http://www.w3.org/1999/xlink"
 xmlns:xodm="http://www.corel.com/coreldraw/odm/2003">
 <defs>
  <style type="text/css">
   <![CDATA[
    .str0 {stroke:#2B2B2A;stroke-width:9.12;stroke-miterlimit:22.9256}
    .fil1 {fill:#434342}
    .fil0 {fill:#F07F1B}
    .fil2 {fill:#F07F1B;fill-rule:nonzero}
   ]]>
  </style>
 </defs>
 <g id="Слой_x0020_1">
  <metadata id="CorelCorpID_0Corel-Layer"/>
  <g id="_105553122669600">
   <path class="fil0 str0" d="M26.31 4.56l456 0c11.96,0 21.75,9.79 21.75,21.75l0 427.41c0,11.96 -9.79,21.75 -21.75,21.75l-456 0c-11.96,0 -21.75,-9.79 -21.75,-21.75l0 -427.41c0,-11.96 9.79,-21.75 21.75,-21.75z"/>
   <path class="fil1 str0" d="M66.25 42.21l376.12 0c11.96,0 21.75,9.79 21.75,21.75l0 352.11c0,11.96 -9.79,21.75 -21.75,21.75l-376.12 0c-11.96,0 -21.75,-9.79 -21.75,-21.75l0 -352.11c0,-11.96 9.79,-21.75 21.75,-21.75z"/>
   <path class="fil1 str0" d="M66.25 42.21l376.12 0c11.96,0 21.75,9.79 21.75,21.75l0 352.11c0,11.96 -9.79,21.75 -21.75,21.75l-376.12 0c-11.96,0 -21.75,-9.79 -21.75,-21.75l0 -352.11c0,-11.96 9.79,-21.75 21.75,-21.75z"/>
   <path class="fil2" d="M78.95 209.89l9.67 0 0 8.28c2.32,-2.88 4.42,-4.96 6.31,-6.26 3.23,-2.21 6.89,-3.33 11,-3.33 4.64,0 8.37,1.15 11.2,3.43 1.6,1.3 3.05,3.22 4.36,5.76 2.17,-3.12 4.73,-5.42 7.67,-6.93 2.93,-1.51 6.24,-2.27 9.9,-2.27 7.84,0 13.17,2.82 15.99,8.49 1.52,3.05 2.29,7.15 2.29,12.29l0 38.8 -10.16 0 0 -40.48c0,-3.88 -0.99,-6.54 -2.91,-7.99 -1.95,-1.45 -4.31,-2.19 -7.12,-2.19 -3.84,0 -7.15,1.3 -9.92,3.86 -2.79,2.58 -4.16,6.89 -4.16,12.91l0 33.89 -9.95 0 0 -38.03c0,-3.95 -0.48,-6.83 -1.43,-8.65 -1.49,-2.71 -4.25,-4.07 -8.32,-4.07 -3.69,0 -7.06,1.43 -10.08,4.29 -3.03,2.86 -4.55,8.06 -4.55,15.56l0 30.9 -9.79 0 0 -58.28zm117.07 -1.3c4.14,0 8.16,0.97 12.04,2.91 3.88,1.93 6.83,4.44 8.86,7.52 1.97,2.96 3.27,6.37 3.92,10.29 0.59,2.69 0.87,6.96 0.87,12.85l-42.71 0c0.18,5.9 1.58,10.64 4.2,14.23 2.62,3.56 6.65,5.35 12.13,5.35 5.12,0 9.19,-1.69 12.24,-5.05 1.75,-1.97 2.99,-4.24 3.71,-6.8l9.62 0c-0.24,2.14 -1.09,4.52 -2.52,7.15 -1.43,2.62 -3.05,4.77 -4.81,6.44 -2.97,2.9 -6.67,4.87 -11.05,5.87 -2.36,0.59 -5.03,0.87 -8,0.87 -7.24,0 -13.39,-2.64 -18.44,-7.91 -5.03,-5.27 -7.56,-12.66 -7.56,-22.17 0,-9.36 2.55,-16.96 7.62,-22.79 5.09,-5.85 11.72,-8.77 19.9,-8.77zm15.62 25.8c-0.39,-4.26 -1.32,-7.64 -2.77,-10.18 -2.69,-4.72 -7.17,-7.07 -13.45,-7.07 -4.49,0 -8.26,1.61 -11.31,4.87 -3.04,3.25 -4.66,7.37 -4.84,12.39l32.37 0zm22.36 -46.15l9.81 0 0 79.93 -9.81 0 0 -79.93zm47.62 73.62c6.48,0 10.94,-2.45 13.35,-7.38 2.42,-4.9 3.62,-10.38 3.62,-16.4 0,-5.44 -0.87,-9.86 -2.62,-13.28 -2.75,-5.37 -7.5,-8.06 -14.24,-8.06 -6,0 -10.34,2.28 -13.05,6.87 -2.73,4.57 -4.09,10.08 -4.09,16.53 0,6.2 1.35,11.38 4.09,15.51 2.71,4.14 7.02,6.2 12.94,6.2zm0.37 -53.65c7.52,0 13.86,2.5 19.06,7.52 5.18,4.99 7.78,12.37 7.78,22.08 0,9.4 -2.29,17.16 -6.85,23.29 -4.59,6.13 -11.66,9.19 -21.29,9.19 -8.02,0 -14.37,-2.71 -19.09,-8.13 -4.72,-5.42 -7.08,-12.7 -7.08,-21.84 0,-9.78 2.49,-17.58 7.45,-23.4 4.98,-5.79 11.64,-8.71 20.02,-8.71zm44.68 31.51c0,6.24 1.32,11.46 3.97,15.68 2.64,4.2 6.89,6.29 12.72,6.29 4.53,0 8.26,-1.95 11.18,-5.85 2.91,-3.9 4.38,-9.49 4.38,-16.77 0,-7.38 -1.51,-12.82 -4.51,-16.36 -3.01,-3.53 -6.72,-5.3 -11.16,-5.3 -4.92,0 -8.94,1.87 -12,5.65 -3.06,3.77 -4.58,9.32 -4.58,16.66zm14.75 -30.85c4.46,0 8.19,0.93 11.2,2.82 1.75,1.09 3.71,2.99 5.94,5.72l0 -29.43 9.4 0 0 80.19 -8.8 0 0 -8.11c-2.29,3.6 -4.99,6.18 -8.11,7.78 -3.12,1.6 -6.69,2.39 -10.72,2.39 -6.5,0 -12.11,-2.73 -16.86,-8.19 -4.75,-5.46 -7.13,-12.72 -7.13,-21.78 0,-8.48 2.17,-15.84 6.5,-22.06 4.35,-6.22 10.53,-9.32 18.59,-9.32zm77.42 1.02l10.83 0c-1.39,3.74 -4.46,12.26 -9.19,25.57 -3.57,10.01 -6.54,18.18 -8.94,24.49 -5.66,14.86 -9.64,23.94 -11.96,27.19 -2.32,3.27 -6.31,4.9 -11.98,4.9 -1.38,0 -2.44,-0.05 -3.18,-0.16 -0.74,-0.11 -1.67,-0.3 -2.75,-0.6l0 -8.91c1.71,0.47 2.93,0.76 3.69,0.87 0.76,0.1 1.43,0.15 2.01,0.15 1.82,0 3.16,-0.3 4.01,-0.89 0.86,-0.59 1.56,-1.34 2.14,-2.21 0.18,-0.28 0.83,-1.77 1.97,-4.46 1.11,-2.68 1.93,-4.68 2.45,-5.98l-21.55 -59.97 11.09 0 15.62 47.45 15.73 -47.45z"/>
  </g>
 </g>
</svg>
