<?xml version="1.0" encoding="UTF-8"?>
<!DOCTYPE svg PUBLIC "-//W3C//DTD SVG 1.1//EN" "http://www.w3.org/Graphics/SVG/1.1/DTD/svg11.dtd">
<!-- Creator: CorelDRAW -->
<svg xmlns="http://www.w3.org/2000/svg" xml:space="preserve" width="11.1514mm" height="10.5245mm" version="1.1" style="shape-rendering:geometricPrecision; text-rendering:geometricPrecision; image-rendering:optimizeQuality; fill-rule:evenodd; clip-rule:evenodd"
viewBox="0 0 268.87 253.75"
 xmlns:xlink="http://www.w3.org/1999/xlink"
 xmlns:xodm="http://www.corel.com/coreldraw/odm/2003">
 <defs>
  <style type="text/css">
   <![CDATA[
    .str0 {stroke:#2B2B2A;stroke-width:4.82;stroke-miterlimit:22.9256}
    .fil0 {fill:#5C5C5B}
    .fil1 {fill:#434342}
    .fil2 {fill:#F07F1B;fill-rule:nonzero}
   ]]>
  </style>
 </defs>
 <g id="Слой_x0020_1">
  <metadata id="CorelCorpID_0Corel-Layer"/>
  <g id="_105553122563392">
   <path class="fil0 str0" d="M13.91 2.41l241.05 0c6.32,0 11.5,5.17 11.5,11.5l0 225.93c0,6.32 -5.17,11.5 -11.5,11.5l-241.05 0c-6.32,0 -11.5,-5.17 -11.5,-11.5l0 -225.93c0,-6.32 5.18,-11.5 11.5,-11.5z"/>
   <path class="fil1 str0" d="M35.02 22.31l198.82 0c6.32,0 11.5,5.17 11.5,11.5l0 186.13c0,6.32 -5.17,11.5 -11.5,11.5l-198.82 0c-6.32,0 -11.5,-5.18 -11.5,-11.5l0 -186.13c0,-6.32 5.17,-11.5 11.5,-11.5z"/>
   <path class="fil1 str0" d="M35.02 22.31l198.82 0c6.32,0 11.5,5.17 11.5,11.5l0 186.13c0,6.32 -5.17,11.5 -11.5,11.5l-198.82 0c-6.32,0 -11.5,-5.18 -11.5,-11.5l0 -186.13c0,-6.32 5.17,-11.5 11.5,-11.5z"/>
   <path class="fil2" d="M40.89 141.02c0.2,2.22 0.76,3.93 1.67,5.13 1.69,2.16 4.61,3.23 8.77,3.23 2.49,0 4.67,-0.54 6.55,-1.62 1.89,-1.08 2.83,-2.74 2.83,-5 0,-1.7 -0.76,-3.01 -2.27,-3.89 -0.96,-0.55 -2.88,-1.18 -5.72,-1.9l-5.31 -1.33c-3.4,-0.85 -5.9,-1.79 -7.51,-2.83 -2.87,-1.8 -4.31,-4.31 -4.31,-7.51 0,-3.77 1.36,-6.81 4.07,-9.13 2.71,-2.33 6.37,-3.5 10.95,-3.5 6,0 10.31,1.76 12.96,5.28 1.66,2.23 2.47,4.64 2.42,7.22l-6.32 0c-0.13,-1.51 -0.66,-2.89 -1.6,-4.13 -1.53,-1.75 -4.2,-2.64 -7.99,-2.64 -2.52,0 -4.44,0.49 -5.75,1.46 -1.29,0.96 -1.96,2.23 -1.96,3.82 0,1.74 0.86,3.13 2.58,4.17 0.99,0.61 2.45,1.15 4.38,1.63l4.43 1.08c4.81,1.17 8.03,2.3 9.67,3.39 2.6,1.71 3.89,4.4 3.89,8.07 0,3.54 -1.35,6.6 -4.03,9.17 -2.69,2.59 -6.78,3.87 -12.28,3.87 -5.92,0 -10.11,-1.34 -12.58,-4.03 -2.46,-2.69 -3.78,-6.01 -3.96,-9.97l6.43 0zm49.88 8.17c4.43,0 7.47,-1.67 9.12,-5.03 1.65,-3.35 2.47,-7.09 2.47,-11.2 0,-3.72 -0.6,-6.74 -1.79,-9.07 -1.88,-3.66 -5.12,-5.5 -9.73,-5.5 -4.1,0 -7.07,1.56 -8.92,4.69 -1.86,3.12 -2.79,6.89 -2.79,11.29 0,4.24 0.93,7.78 2.79,10.59 1.85,2.83 4.8,4.24 8.84,4.24zm0.25 -36.65c5.14,0 9.46,1.71 13.01,5.14 3.54,3.41 5.32,8.45 5.32,15.08 0,6.42 -1.56,11.72 -4.68,15.91 -3.13,4.19 -7.97,6.28 -14.54,6.28 -5.48,0 -9.82,-1.85 -13.04,-5.56 -3.22,-3.7 -4.83,-8.67 -4.83,-14.92 0,-6.68 1.7,-12.01 5.09,-15.98 3.4,-3.96 7.95,-5.95 13.67,-5.95zm32.97 1.15l0 26.42c0,2.03 0.32,3.69 0.96,4.99 1.19,2.37 3.41,3.56 6.66,3.56 4.66,0 7.83,-2.08 9.51,-6.24 0.91,-2.23 1.37,-5.29 1.37,-9.18l0 -19.55 6.68 0 0 39.81 -6.32 0 0.08 -5.87c-0.86,1.51 -1.94,2.79 -3.24,3.83 -2.55,2.08 -5.64,3.12 -9.28,3.12 -5.67,0 -9.54,-1.89 -11.59,-5.68 -1.12,-2.03 -1.67,-4.74 -1.67,-8.14l0 -27.06 6.84 0zm35.65 0l6.36 0 0 5.66c1.88,-2.33 3.87,-4.01 5.97,-5.02 2.1,-1.02 4.45,-1.52 7.03,-1.52 5.64,0 9.46,1.97 11.44,5.91 1.09,2.16 1.64,5.24 1.64,9.25l0 25.54 -6.8 0 0 -25.09c0,-2.42 -0.35,-4.38 -1.08,-5.86 -1.19,-2.49 -3.34,-3.72 -6.47,-3.72 -1.58,0 -2.88,0.15 -3.89,0.48 -1.84,0.54 -3.45,1.64 -4.83,3.26 -1.12,1.32 -1.84,2.68 -2.17,4.07 -0.34,1.41 -0.51,3.4 -0.51,6l0 20.85 -6.69 0 0 -39.81zm46.57 20.37c0,4.26 0.9,7.83 2.71,10.71 1.8,2.87 4.71,4.3 8.69,4.3 3.1,0 5.64,-1.33 7.64,-4 1.99,-2.66 2.99,-6.48 2.99,-11.45 0,-5.04 -1.03,-8.75 -3.08,-11.18 -2.05,-2.41 -4.59,-3.62 -7.62,-3.62 -3.36,0 -6.1,1.28 -8.2,3.86 -2.09,2.58 -3.13,6.37 -3.13,11.38zm10.07 -21.07c3.04,0 5.59,0.63 7.65,1.93 1.19,0.75 2.54,2.04 4.06,3.91l0 -20.11 6.42 0 0 54.77 -6.01 0 0 -5.54c-1.56,2.46 -3.41,4.22 -5.54,5.31 -2.13,1.09 -4.57,1.64 -7.32,1.64 -4.44,0 -8.27,-1.86 -11.52,-5.59 -3.25,-3.73 -4.87,-8.69 -4.87,-14.88 0,-5.8 1.48,-10.82 4.44,-15.07 2.97,-4.25 7.19,-6.37 12.7,-6.37z"/>
  </g>
 </g>
</svg>
